<?xml version="1.0" encoding="UTF-8"?><svg id="_圖層_2" xmlns="http://www.w3.org/2000/svg" viewBox="0 0 578.43 174.06"><defs><style>.cls-1{fill:#ac0006;}</style></defs><g id="_圖層_1-2"><g><g><path class="cls-1" d="M101.96,131.65c10.12,.83,17.7,9.74,16.87,19.87-.39,4.91-2.68,9.37-6.43,12.55-3.76,3.18-8.53,4.72-13.43,4.33-2.12-.17-4.16-.71-6.08-1.58-3.89,4.45-9.51,6.99-15.37,6.99-.55,0-1.11-.03-1.66-.07-4.49-.37-8.63-2.16-11.97-5.17h-.01s-.11-.09-.32-.24c-2.71,1.79-6.05,2.62-9.47,2.34-3.72-.3-7.12-1.88-9.58-4.45-2.47-2.59-3.68-5.87-3.41-9.24,.01-.25,.05-.5,.09-.76-6.42-2.08-11.95-2.45-16.45-1.09C7.89,160.21,.4,145.25,.33,145.1c-.16-.34-.07-.76,.24-.99,.3-.24,.72-.22,1.01,.03,.43,.38,10.79,9.08,28.2-2.71,6.26-4.25,13.71-6.36,22.12-6.2-.09,.16-.16,.32-.24,.47-.18,.39-.01,.87,.39,1.05,.09,.05,.21,.08,.3,.08-8.28-.22-15.57,1.76-21.68,5.91-12.96,8.79-22.53,6.58-27.11,4.43,2.92,3.82,9.53,9.79,20.7,6.42,4.99-1.5,11.08-1.05,18.09,1.34,.38,.13,.61,.53,.51,.92-.09,.43-.14,.86-.18,1.26-.24,2.91,.82,5.75,2.97,8,2.18,2.28,5.22,3.68,8.55,3.96,3.25,.26,6.41-.59,8.89-2.39,.29-.2,.67-.2,.95,.01,.38,.29,.64,.49,.75,.57,.04,.03,.07,.05,.09,.08,3.09,2.8,6.93,4.46,11.09,4.79,6.13,.51,12.13-2.04,16.05-6.8,.24-.29,.64-.38,.97-.21,1.91,.93,3.96,1.5,6.08,1.67,4.47,.37,8.83-1.03,12.26-3.95,3.42-2.91,5.51-6.97,5.88-11.46,.75-9.25-6.16-17.38-15.41-18.14-2.21-.17-4.38,.08-6.49,.74-.2,.08-.42,.05-.62-.05-.18-.11-.33-.28-.39-.49-1.24-4.33-5.08-7.47-9.57-7.84-4.01-.33-7.45,1.2-9.57,4.22-.41-.33-.83-.64-1.29-.93,2.45-3.49,6.41-5.25,10.97-4.88,4.88,.39,9.11,3.66,10.75,8.22,2.05-.55,4.18-.75,6.33-.58Z"/><path class="cls-1" d="M101.83,133.25c9.25,.76,16.16,8.89,15.41,18.14-.37,4.49-2.46,8.55-5.88,11.46-3.43,2.92-7.79,4.32-12.26,3.95-2.12-.17-4.17-.74-6.08-1.67-.33-.17-.74-.08-.97,.21-3.92,4.76-9.92,7.32-16.05,6.8-4.16-.33-8-1.99-11.09-4.79-.03-.03-.05-.05-.09-.08-.11-.08-.37-.28-.75-.57-.28-.21-.66-.21-.95-.01-2.49,1.8-5.64,2.66-8.89,2.39-3.33-.28-6.37-1.68-8.55-3.96-2.16-2.25-3.21-5.09-2.97-8,.04-.41,.09-.83,.18-1.26,.09-.39-.13-.79-.51-.92-7.01-2.39-13.11-2.84-18.09-1.34-11.17,3.37-17.78-2.61-20.7-6.42,4.58,2.14,14.14,4.36,27.11-4.43,6.12-4.14,13.41-6.13,21.68-5.91,.17,0,.33-.05,.47-.13,.05-.04,.11-.09,.14-.14,.08-.07,.13-.16,.16-.25,3.21-6.96,11.54-10.01,18.58-6.8,.72,.33,1.39,.72,2,1.18,4.11,3.04,5.67,8.64,3.46,13.47-.96,2.11-2.68,3.72-4.87,4.53-2.17,.82-4.53,.72-6.63-.24-1.66-.75-2.91-2.11-3.55-3.8-.63-1.7-.57-3.54,.2-5.2,1.2-2.64,4.33-3.82,6.99-2.61,.39,.18,.87,.01,1.05-.39,.18-.39,.01-.87-.39-1.05-3.45-1.58-7.53-.05-9.11,3.39-.93,2.04-1.01,4.32-.22,6.41,.78,2.11,2.33,3.78,4.37,4.71,1.37,.62,2.82,.93,4.26,.93,1.22,0,2.43-.22,3.61-.66,2.58-.96,4.62-2.87,5.76-5.37,2.42-5.3,.86-11.43-3.43-15,2.12-3.03,5.55-4.55,9.57-4.22,4.49,.37,8.33,3.51,9.57,7.84,.07,.21,.21,.38,.39,.49,.2,.11,.42,.13,.62,.05,2.11-.66,4.28-.91,6.49-.74Z"/><path class="cls-1" d="M75.19,129.83c4.29,3.57,5.86,9.7,3.43,15-1.14,2.5-3.18,4.41-5.76,5.37-1.17,.43-2.38,.66-3.61,.66-1.45,0-2.89-.32-4.26-.93-2.04-.93-3.59-2.61-4.37-4.71-.79-2.09-.71-4.37,.22-6.41,1.58-3.45,5.66-4.97,9.11-3.39,.41,.18,.58,.66,.39,1.05-.18,.41-.66,.58-1.05,.39-2.66-1.21-5.79-.04-6.99,2.61-.76,1.66-.83,3.5-.2,5.2,.64,1.7,1.89,3.05,3.55,3.8,2.11,.96,4.46,1.05,6.63,.24,2.18-.8,3.91-2.42,4.87-4.53,2.21-4.83,.64-10.43-3.46-13.47,.38,.22,.87,.11,1.11-.28,.12-.21,.25-.41,.38-.59Z"/><path class="cls-1" d="M75.19,129.83c-.13,.18-.26,.38-.38,.59-.24,.38-.72,.5-1.11,.28-.37-.24-.49-.72-.26-1.11,.14-.24,.3-.47,.46-.7,.46,.29,.88,.61,1.29,.93Z"/><path class="cls-1" d="M73.91,128.89c-.16,.22-.32,.46-.46,.7-.22,.38-.11,.87,.26,1.11-.61-.46-1.28-.86-2-1.18-7.04-3.21-15.37-.16-18.58,6.8,.04-.08,.05-.16,.05-.25,.01-.45-.34-.82-.78-.83-.17,0-.34-.01-.51,0,3.71-7.47,12.78-10.68,20.49-7.17,.54,.25,1.04,.53,1.53,.83Z"/><path class="cls-1" d="M52.41,135.23c.43,.01,.79,.38,.78,.83,0,.09-.01,.17-.05,.25-.01,.01-.01,.04-.03,.05-.04,.08-.08,.14-.13,.2-.04,.05-.09,.11-.14,.14-.14,.08-.3,.13-.47,.13-.09,0-.21-.03-.3-.08-.41-.18-.58-.66-.39-1.05,.08-.16,.14-.32,.24-.47,.17-.01,.34,0,.51,0Z"/><path class="cls-1" d="M53.1,136.36s.01-.04,.03-.05c-.03,.09-.08,.18-.16,.25,.05-.05,.09-.12,.13-.2Z"/><path class="cls-1" d="M52.83,136.71c.05-.04,.11-.09,.14-.14-.04,.05-.09,.11-.14,.14Z"/></g><path class="cls-1" d="M90.16,169.11c-.27,0-.53-.13-.68-.38-.23-.38-.12-.87,.26-1.1,3.21-1.99,4.2-6.22,2.21-9.43-1.55-2.49-4.83-3.26-7.32-1.71-.93,.58-1.58,1.48-1.83,2.55-.25,1.07-.07,2.16,.51,3.09,.44,.71,1.13,1.2,1.94,1.39,.81,.19,1.65,.05,2.35-.39,1.09-.68,1.43-2.12,.75-3.21-.5-.8-1.55-1.04-2.35-.55-.56,.35-.74,1.09-.39,1.66,.11,.18,.29,.31,.5,.36,.21,.05,.42,.01,.61-.1,.38-.23,.87-.12,1.1,.26,.23,.38,.12,.87-.26,1.1-.55,.34-1.19,.44-1.82,.3-.63-.15-1.16-.53-1.49-1.07-.4-.64-.52-1.39-.35-2.12,.17-.73,.62-1.35,1.25-1.74,1.55-.96,3.59-.48,4.55,1.06,1.14,1.84,.58,4.27-1.27,5.42-1.07,.66-2.33,.87-3.56,.59-1.23-.29-2.27-1.03-2.93-2.1-.8-1.29-1.05-2.82-.71-4.3,.35-1.48,1.25-2.74,2.54-3.54,3.24-2.01,7.51-1.01,9.53,2.23,2.46,3.96,1.24,9.18-2.72,11.63-.13,.08-.28,.12-.42,.12Z"/><path class="cls-1" d="M49.61,154.81c-.27,0-.53-.13-.68-.38-5.31-8.54,1.63-15.14,1.7-15.21,.32-.3,.83-.28,1.13,.04,.3,.32,.28,.83-.04,1.13-.26,.24-6.03,5.79-1.43,13.19,.23,.38,.12,.87-.26,1.1-.13,.08-.28,.12-.42,.12Z"/><path class="cls-1" d="M42.31,161.8c-.34,0-.65-.21-.76-.55-.03-.09-2.76-8.77,5.75-14.61,.36-.25,.86-.16,1.11,.21,.25,.36,.16,.86-.21,1.11-7.49,5.14-5.23,12.49-5.13,12.8,.14,.42-.09,.87-.51,1.01-.08,.03-.17,.04-.25,.04Z"/></g><g><path d="M212.68,38.41c-1.04,1.36-2.06,2.38-3.06,3.06-1,.68-1.98,1.08-2.94,1.21-.96,.13-1.86,0-2.72-.36-.86-.37-1.64-.95-2.35-1.72-1.33-1.46-2.99-3.17-4.98-5.15-1.99-1.97-4.14-4.08-6.43-6.31-.1-.1-.22-.1-.36,0-.15,.1-.27,.26-.36,.49-.58,1.39-1.27,2.65-2.06,3.79-.79,1.13-1.67,2.14-2.62,3.01-.96,.87-1.96,1.62-3.01,2.23-1.05,.62-2.11,1.08-3.18,1.41-1.85,.58-3.45,.99-4.81,1.21-1.36,.23-2.52,.27-3.47,.12-.96-.15-1.73-.47-2.33-.97-.6-.5-1.06-1.19-1.38-2.06-.26-.58-.33-.99-.22-1.21,.11-.23,.44-.34,1-.34,.71,0,1.59-.06,2.65-.17,1.05-.11,2.17-.29,3.35-.53,1.18-.24,2.36-.56,3.54-.95,1.18-.39,2.24-.84,3.18-1.36,3.24-1.78,5.24-4.66,6.02-8.64,.1-.42-.08-.63-.53-.63-1.97,.07-3.93,.18-5.88,.34-1.94,.16-3.58,.37-4.9,.63-1.59,.29-2.4-.08-2.43-1.12-.03-.55,.08-1.03,.34-1.43,.26-.4,.76-.83,1.51-1.29,.68-.42,1.18-.65,1.51-.68,.32-.03,.73,.07,1.21,.29,.16,.07,.47,.11,.92,.12,.45,.02,1.13,0,2.04-.07,.84-.06,1.81-.11,2.91-.15,1.1-.03,2.12-.06,3.06-.1,.42,0,.63-.26,.63-.78,0-.42,0-.85-.02-1.29-.02-.44-.06-.88-.12-1.34-.19-1.23-.26-2.14-.19-2.72,.06-.58,.32-1,.78-1.26,.45-.23,1.03-.27,1.72-.15,.7,.13,1.37,.44,2.02,.92,.36,.26,.6,.69,.73,1.29,.13,.6,.18,1.59,.15,2.99,0,.26,0,.53-.02,.8-.02,.28-.02,.54-.02,.8,0,.23,.11,.41,.34,.53,.23,.13,.42,.19,.58,.19,2.2,.03,4.35,.11,6.43,.22,2.09,.11,4.07,.27,5.95,.46,.68,.07,1.12,.15,1.34,.27,.21,.11,.32,.43,.32,.95,0,.58-.17,1-.51,1.26-.34,.26-.83,.42-1.48,.49-.39,.07-.96,.11-1.7,.12-.75,.02-1.59,.02-2.55,.02s-1.98-.02-3.08-.07c-1.1-.05-2.2-.1-3.3-.17-.32-.03-.74-.06-1.24-.07-.5-.02-.9-.02-1.19-.02-.26,0-.41,.07-.46,.22s0,.3,.17,.46c3.98,3.37,7.66,5.97,11.05,7.82,3.38,1.85,6.55,3.14,9.49,3.88,.68,.16,1.09,.36,1.24,.58,.15,.23,.07,.53-.22,.92Z"/><path d="M241.7,23.26c.06,.32-.08,.65-.44,.97-.36,.32-1.08,.49-2.19,.49h-1.41c-.65,0-.87,.13-.68,.39,.68,.75,1.36,1.35,2.04,1.82,.68,.47,1.36,.95,2.04,1.43,.29,.23,.45,.51,.49,.85,.03,.34-.05,.64-.24,.9-.58,.75-1.21,.94-1.89,.58-.26-.13-.48-.25-.66-.36-.18-.11-.36-.25-.56-.41-.55-.42-.92-.59-1.09-.51-.18,.08-.27,.4-.27,.95,.03,1.36,.06,2.78,.1,4.25,.03,1.47,.08,3.08,.15,4.83,.03,1.07-.08,1.85-.34,2.33-.26,.49-.76,.86-1.51,1.12-1.23,.42-2.05,.36-2.45-.17-.41-.53-.58-1.42-.51-2.65,.06-1.04,.14-2.22,.22-3.54,.08-1.33,.14-2.72,.17-4.18,0-.87-.28-.99-.83-.34-.65,.74-1.31,1.41-1.99,1.99-.68,.58-1.6,1.29-2.77,2.14-1.07,.84-2.21,1.17-3.42,1-1.21-.18-2.16-.85-2.84-2.02-.62-1-.49-1.55,.39-1.65,.45-.06,1.16-.28,2.11-.66,.95-.37,1.98-.88,3.08-1.53,1.1-.65,2.19-1.42,3.25-2.31,1.07-.89,1.94-1.87,2.62-2.94,.26-.42,.36-.73,.32-.92-.05-.19-.19-.29-.41-.29-1.55,.03-2.77,.11-3.64,.24-.87,.13-1.54,.28-1.99,.44-.65,.26-1.12,.36-1.41,.29-.29-.06-.58-.21-.87-.44-.36-.32-.49-.73-.39-1.21,.1-.49,.47-1.02,1.12-1.6,.74-.68,1.65-.87,2.72-.58,.32,.07,.61,.11,.87,.15,.26,.03,.57,.03,.92,0,.45-.03,.91-.06,1.36-.07,.45-.02,.91-.04,1.36-.07,.29,0,.44-.16,.44-.49v-1.94c0-.29-.16-.44-.49-.44-1.65,.07-2.96,0-3.93-.22-.97-.21-1.67-.44-2.09-.7-.55-.42-.7-.87-.46-1.34,.24-.47,.78-.67,1.63-.61,.91,.1,1.76,.15,2.57,.15s1.63-.06,2.45-.17c.83-.11,1.72-.32,2.67-.61,.95-.29,2.05-.68,3.28-1.17,.61-.26,1.19-.33,1.72-.22,.53,.11,.98,.49,1.34,1.14,.36,.75,.46,1.38,.32,1.89-.15,.52-.54,.83-1.19,.92-.45,.07-.99,.14-1.6,.22-.62,.08-1.12,.15-1.51,.22-.29,.07-.44,.21-.44,.44,0,.42,0,.83-.02,1.21-.02,.39-.02,.76-.02,1.12,0,.32,.18,.49,.53,.49h1.85c.94,.03,1.55,.12,1.85,.27,.29,.15,.49,.53,.58,1.14Zm22.63,7.72c-.16,.75-.28,1.56-.36,2.45-.08,.89-.11,2.05-.07,3.47,.03,1-.02,1.81-.15,2.43-.13,.62-.37,1.12-.73,1.51-.78,.84-1.62,1.07-2.52,.68-.13-.06-.27-.14-.41-.22-.15-.08-.28-.15-.41-.22-.13-.06-.28-.13-.46-.19-.18-.06-.35-.1-.51-.1-.91-.06-1.75-.1-2.52-.12-.78-.02-1.55-.02-2.33-.02s-1.57,0-2.38,.02c-.81,.02-1.68,.04-2.62,.07-1.23,.07-2.19,.36-2.86,.87-.36,.26-.78,.4-1.26,.41-.49,.02-.91-.1-1.26-.36-.26-.19-.49-.53-.7-1.02-.21-.49-.3-1-.27-1.55,.06-1.49,.05-3-.05-4.54-.1-1.54-.28-2.92-.53-4.15-.29-1.49-.22-2.48,.22-2.96,.44-.49,1.22-.6,2.35-.34,.16,.07,.33,.13,.51,.19,.18,.07,.33,.16,.46,.29,.13,.16,.27,.21,.44,.15,.87-.19,1.54-.38,1.99-.56,.45-.18,.94-.44,1.46-.8,.45-.36,.96-.49,1.53-.39,.57,.1,.95,.42,1.14,.97,.39,1.04,.13,1.7-.78,1.99-.65,.16-1.32,.28-2.02,.36-.7,.08-1.63,.12-2.79,.12-.32,0-.49,.18-.49,.53v.78c0,.26,.02,.52,.05,.78,0,.26,.15,.39,.44,.39,.81,.07,1.54,.11,2.19,.12,.65,.02,1.34,0,2.09-.07,.81-.03,1.21,.32,1.21,1.07-.03,.71-.44,1.1-1.21,1.17-.65,.07-1.29,.11-1.92,.12-.63,.02-1.3,0-2.02-.02-.39,0-.55,.18-.49,.53,.03,.65,.08,1.21,.15,1.7,.03,.49,.21,.82,.53,1,.32,.18,.91,.24,1.75,.17,1.65-.13,3.25-.19,4.81-.17,1.55,.02,3.27,.11,5.15,.27,.36,.07,.53-.1,.53-.49,0-.16,0-.31,.02-.44,.02-.13,.04-.27,.07-.44,.06-.26,.1-.53,.12-.8,.02-.27,.04-.57,.07-.9,.06-.36-.11-.53-.53-.53-1.1,.07-1.98,.11-2.65,.12-.66,.02-1.17,0-1.53-.02-.36-.03-.62-.09-.8-.17-.18-.08-.33-.19-.46-.32-.16-.16-.24-.44-.22-.83,.02-.39,.09-.61,.22-.68,.29-.19,.62-.32,1-.39,.37-.06,.74-.08,1.09-.05,.45,.07,.92,.11,1.41,.12,.49,.02,1.2,.02,2.14,.02,.32,0,.49-.16,.49-.49v-.78c0-.52-.07-.87-.19-1.04-.13-.18-.31-.27-.53-.27-.55-.03-1.15-.03-1.8,0-.65,.03-1.23,.08-1.75,.15-.36,.03-.7,0-1.02-.12-.32-.11-.55-.27-.68-.46-.13-.23-.19-.44-.19-.66s.1-.49,.29-.85c.29-.45,.84-.63,1.65-.53,1.72,.26,2.91,.37,3.57,.34,.66-.03,1.17-.21,1.53-.53,.36-.26,.8-.35,1.34-.27,.53,.08,1.06,.3,1.58,.66,.32,.23,.57,.44,.75,.63,.18,.19,.3,.43,.36,.7,.06,.28,.08,.61,.05,1-.03,.39-.11,.89-.24,1.51Zm-16.17-5.97c.29,.36,.43,.65,.41,.87-.02,.23-.25,.36-.7,.39-.97,.07-1.87-.09-2.69-.46-.83-.37-1.66-1.04-2.5-2.02-.39-.49-.56-.99-.51-1.51,.05-.52,.27-.99,.66-1.41,.52-.58,1.08-.85,1.68-.8,.6,.05,1.03,.4,1.29,1.04,.36,.81,.7,1.49,1.02,2.04,.32,.55,.78,1.17,1.36,1.85Zm12.82-9.66c.49,.55,.53,1.13,.12,1.75-.41,.62-1.19,1-2.35,1.17-1.23,.19-2.56,.36-3.98,.51-1.42,.15-2.83,.26-4.22,.34-1.39,.08-2.7,.13-3.93,.15-1.23,.02-2.25,0-3.06-.07-.52-.03-.76-.49-.73-1.36,.1-.39,.45-.58,1.07-.58,1.36-.03,2.58-.1,3.67-.22,1.08-.11,2.11-.27,3.08-.49,.97-.21,1.92-.48,2.84-.8,.92-.32,1.92-.71,2.99-1.17,.58-.23,1.08-.4,1.48-.51,.4-.11,.76-.15,1.07-.1,.31,.05,.61,.19,.92,.41,.31,.23,.66,.55,1.04,.97Zm-6.65,8.5c.23,.36,.27,.66,.12,.92-.15,.26-.41,.41-.8,.44-.71,.07-1.46-.08-2.23-.44-.78-.36-1.29-.87-1.55-1.55-.23-.58-.33-1.13-.32-1.65,.02-.52,.2-.91,.56-1.17,.23-.19,.49-.35,.8-.46,.31-.11,.61-.15,.9-.12,.29,.03,.56,.13,.8,.29,.24,.16,.41,.44,.51,.83,.16,.65,.34,1.21,.53,1.68,.19,.47,.42,.88,.68,1.24Zm9.47-1.02c-1,.55-1.84,.99-2.52,1.31-.68,.32-1.25,.58-1.72,.78-.47,.19-.87,.33-1.19,.41-.32,.08-.65,.14-.97,.17-.52,.07-.83-.06-.92-.39-.1-.32,0-.6,.29-.83,.84-.65,1.55-1.38,2.14-2.19,.58-.81,1.05-1.63,1.41-2.48,.23-.52,.56-.85,1-1,.44-.15,1.21,.15,2.31,.9,1,.65,1.46,1.26,1.38,1.85s-.48,1.07-1.19,1.46Z"/><path d="M294.61,32.39c.13,.52-.02,.97-.44,1.36-.13,.13-.36,.3-.7,.51-.34,.21-.74,.43-1.19,.66-.45,.23-.95,.45-1.48,.68-.53,.23-1.06,.41-1.58,.53-.58,.16-1.24,.36-1.97,.61-.73,.24-1.46,.49-2.19,.75-.73,.26-1.44,.52-2.14,.78-.7,.26-1.32,.5-1.87,.73-1.17,.45-2.2,.59-3.11,.41-.91-.18-1.47-.59-1.7-1.24-.16-.52-.28-.93-.36-1.24-.08-.31-.09-.75-.02-1.34,.06-.45,.39-.83,.97-1.14,.58-.31,1.18-.43,1.8-.36,.36,.03,.75,.02,1.19-.05,.44-.06,.98-.18,1.63-.34,.52-.13,1.04-.24,1.58-.34,.53-.1,1.08-.19,1.63-.29,.16-.03,.27-.09,.34-.17,.06-.08,.11-.25,.15-.51,.06-1.07,.11-2.09,.15-3.06,.03-.97,.02-2.07-.05-3.3,0-.32-.19-.45-.58-.39-1.3,.16-2.25,.32-2.86,.49-.55,.13-1.04,.28-1.48,.44-.44,.16-.88,.32-1.34,.49-.58,.16-1.02,.09-1.31-.22-.29-.31-.36-.74-.19-1.29,.06-.26,.2-.61,.41-1.07,.21-.45,.48-.92,.8-1.41,.39-.61,1.17-.76,2.33-.44,.19,.07,.61,.11,1.26,.12,.65,.02,1.38,0,2.19-.07,.26-.03,.42-.09,.49-.17,.06-.08,.08-.25,.05-.51-.06-.45-.11-.98-.12-1.58-.02-.6-.06-1.21-.12-1.82-.13-1.62-.03-2.67,.29-3.16,.32-.49,1.05-.71,2.19-.68,.26,0,.54,.11,.85,.32,.31,.21,.77,.61,1.38,1.19,.23,.23,.4,.44,.53,.63,.13,.19,.22,.45,.27,.78,.05,.32,.06,.75,.02,1.29-.03,.53-.11,1.24-.24,2.11-.07,.49-.02,.79,.12,.92,.15,.13,.49,.15,1.04,.05,1.75-.23,2.74-.03,2.96,.58,.13,.26,.15,.53,.07,.8-.08,.28-.24,.59-.46,.95-.16,.23-.49,.4-1,.51-.5,.11-1.32,.2-2.45,.27-.39,0-.6,.21-.63,.63-.06,.94-.11,1.93-.15,2.96-.03,1.04-.07,2.04-.1,3.01,0,.16,.05,.29,.15,.39s.24,.13,.44,.1c.13-.03,.32-.07,.56-.12,.24-.05,.5-.1,.78-.15,.27-.05,.56-.09,.85-.12,.29-.03,.53-.05,.73-.05,.61-.03,1.03,0,1.24,.1,.21,.1,.35,.26,.41,.49Zm27.72,6.99c-.65,.81-1.25,1.44-1.82,1.89-.57,.45-1.13,.76-1.7,.92-.57,.16-1.15,.21-1.75,.15-.6-.06-1.25-.23-1.97-.49-.71-.23-1.52-.43-2.43-.61-.91-.18-1.83-.32-2.77-.44-.94-.11-1.85-.2-2.72-.27-.87-.06-1.6-.1-2.19-.1-1.23,.07-2.47,.14-3.71,.22-1.25,.08-2.43,.18-3.54,.29-1.12,.11-2.11,.25-2.99,.41-.87,.16-1.55,.34-2.04,.53-.84,.36-1.46,.38-1.85,.07-.39-.31-.5-.75-.34-1.34,.16-.61,.36-1.11,.61-1.48,.24-.37,.64-.74,1.19-1.09,.49-.36,.95-.56,1.41-.61,.45-.05,.95,.06,1.51,.32,.06,.03,.34,.06,.83,.07,.49,.02,1.08,.02,1.77,.02s1.45,0,2.26-.02c.81-.02,1.57-.04,2.28-.07,.42,0,.63-.21,.63-.63,.03-.42,.05-.75,.05-1s.02-.56,.05-.95c.03-.23,0-.38-.07-.46-.08-.08-.25-.12-.51-.12-1.07,.03-2.08,.07-3.03,.1-.96,.03-1.55,.08-1.77,.15-.84,.19-1.49,.2-1.94,.02-.45-.18-.66-.54-.63-1.09,.03-.58,.23-1.08,.61-1.48,.37-.4,.96-.56,1.77-.46,.13,.03,.39,.06,.78,.07,.39,.02,.82,.02,1.29,.02s.96,0,1.48-.02c.52-.02,.97-.04,1.36-.07,.32-.03,.51-.09,.56-.17,.05-.08,.07-.23,.07-.46,0-.16,0-.4-.02-.73-.02-.32-.02-.57-.02-.73,0-.29-.15-.44-.44-.44-.58,0-1.17,.02-1.75,.05-.58,.03-1.13,.06-1.65,.07-.52,.02-.96,.04-1.34,.07-.37,.03-.62,.07-.75,.1-1.04,.26-1.8,.34-2.28,.24-.49-.1-.78-.42-.87-.97-.06-.36,.05-.7,.34-1.02,.29-.32,.79-.65,1.51-.97,.23-.1,.53-.15,.92-.15s1.05,.08,1.99,.24c.13,.03,.47,.05,1.02,.05s1.21,0,1.97-.02c.76-.02,1.56-.03,2.4-.05,.84-.02,1.63-.06,2.38-.12,.49-.03,1-.06,1.53-.07,.53-.02,1.13,0,1.8,.02,.66,.03,1.41,.07,2.23,.12,.83,.05,1.79,.12,2.89,.22,.45,.07,.75,.17,.9,.32,.15,.15,.25,.4,.32,.75,.06,.45,0,.75-.22,.9-.21,.15-.64,.22-1.29,.22h-5.83c-.26,0-.42,.03-.49,.1-.06,.07-.1,.19-.1,.39,0,.16,0,.4-.02,.7-.02,.31-.04,.54-.07,.7-.03,.16-.02,.28,.05,.36,.06,.08,.23,.12,.49,.12,.84,.07,1.76,.12,2.77,.17,1,.05,1.85,.12,2.52,.22,1.23,.19,1.81,.55,1.75,1.07-.03,.45-.14,.76-.32,.92-.18,.16-.58,.28-1.19,.34-.29,.07-.99,.11-2.09,.12-1.1,.02-2.31,.02-3.64,.02-.29,0-.44,.21-.44,.63,.03,.36,.05,.68,.05,.97v.83c0,.36,.19,.53,.58,.53,.49,0,1.05,0,1.7,.02,.65,.02,1.46,.03,2.45,.05,.99,.02,2.17,.04,3.54,.07,1.38,.03,3.02,.07,4.93,.1,.71,.03,1.15,.21,1.31,.53,.16,.32,.08,.68-.24,1.07Zm-7.04-20.93c-.36,1.23-.57,2.2-.66,2.91-.08,.71-.11,1.28-.07,1.7,.03,.45-.06,.87-.27,1.26-.21,.39-.64,.83-1.29,1.31-.19,.16-.58,.23-1.17,.19-.58-.03-1.13-.18-1.65-.44-.23-.1-.69-.18-1.38-.24-.7-.06-1.49-.12-2.38-.17-.89-.05-1.81-.06-2.77-.05-.95,.02-1.8,.04-2.55,.07-.45,.1-.87,.24-1.26,.44-.71,.36-1.31,.47-1.8,.34-.49-.13-.83-.57-1.02-1.31-.32-1.1-.58-2.2-.75-3.3-.18-1.1-.32-2.27-.41-3.5-.07-.74,.06-1.45,.39-2.11,.32-.66,.71-1.03,1.17-1.09,.65-.13,1.17-.18,1.58-.15,.4,.03,.72,.19,.95,.49,.32,.42,.66,.63,1.02,.63,1.52-.06,2.96-.1,4.32-.1s2.39,.03,3.11,.1c.42,.07,.92,.04,1.51-.07,.58-.11,1.13-.3,1.65-.56,.45-.26,.96-.36,1.53-.29,.57,.07,1.03,.28,1.38,.63,.52,.55,.83,1.05,.95,1.51,.11,.45,.07,1.05-.12,1.8Zm-4.86,1.94c.03-.94-.07-1.56-.29-1.87-.23-.31-.68-.49-1.36-.56-.87-.13-1.91-.19-3.11-.17-1.2,.02-2.72,.11-4.56,.27-.39,.03-.58,.23-.58,.58-.07,.91-.07,1.97,0,3.2,0,.42,.16,.63,.49,.63,1.85,.03,3.41,.05,4.71,.05s2.22-.02,2.77-.05c.65-.03,1.12-.2,1.43-.51,.31-.31,.48-.83,.51-1.58Z"/></g><g><path class="cls-1" d="M176.88,135.99c1.06,3.39,1.45,6.96,1.16,10.73-.29,3.77-1.55,7.98-3.77,12.62-1.16,2.23-2.97,3.8-5.44,4.71-2.47,.92-4.71,.65-6.74-.8-2.13-1.35-3.26-3.31-3.41-5.87-.15-2.56,1.09-5.24,3.7-8.05,1.74-1.93,3.34-3.82,4.79-5.66,1.45-1.84,3.19-4.3,5.22-7.4,.77-1.16,1.64-1.74,2.61-1.74s1.6,.48,1.89,1.45Zm105.73-38.58c.1,.87,.07,1.6-.07,2.18s-.65,1.04-1.52,1.38c-.87,.34-2.25,.58-4.13,.73-1.89,.15-4.52,.22-7.9,.22-2.52-.1-4.79-.15-6.82-.15h-6.24c-.29,0-.68,.12-1.16,.36-.48,.24-1.31,.6-2.47,1.09-2.81,1.16-5.03,2.1-6.67,2.83-1.65,.73-3,1.43-4.06,2.1-.77,.48-1.06,1.09-.87,1.81,.19,.73,1.21,1.04,3.05,.94,1.55-.1,2.66-.24,3.34-.44,.68-.19,1.31-.53,1.89-1.02,.77-.48,1.47-.99,2.1-1.52,.63-.53,1.33-1.04,2.1-1.52,1.74-1.26,3.12-1.89,4.13-1.89s2.2,.63,3.55,1.89c.87,.77,1.14,1.94,.8,3.48-.34,1.55-1.38,2.71-3.12,3.48-4.64,1.94-8.27,3.6-10.88,5-2.61,1.4-4.64,2.88-6.09,4.42-.48,.49-.6,1.07-.36,1.74,.24,.68,1.04,1.06,2.39,1.16,4.16,.29,6.77-.15,7.83-1.31,.48-.48,.75-1.04,.8-1.67,.05-.63-.02-1.14-.22-1.52-.77-1.16-.73-2.2,.15-3.12,.87-.92,2.08-.99,3.63-.22,.48,.29,1.26,.68,2.32,1.16,1.06,.48,2.22,.92,3.48,1.31,.87,.29,1.79,.9,2.76,1.81,.97,.92,1.64,1.81,2.03,2.68,1.06,2.61,1.09,4.42,.07,5.44s-2.68,.99-5-.07c-1.45-.68-2.49-1.04-3.12-1.09-.63-.05-1.19,.12-1.67,.51-.58,.48-1.23,.92-1.96,1.31-.73,.39-1.62,.82-2.68,1.31-1.55,.77-3.14,1.21-4.79,1.31-1.65,.1-3-.1-4.06-.58-1.55-.68-3.05-1.14-4.5-1.38-1.45-.24-2.42-.27-2.9-.07-2.52,.77-4.47,.87-5.87,.29-1.4-.58-2.35-1.69-2.83-3.34-.29-1.26-.17-2.42,.36-3.48,.53-1.06,1.28-1.89,2.25-2.47,.87-.48,1.79-1.02,2.76-1.6,.97-.58,1.98-1.26,3.05-2.03,1.06-.77,1.6-1.38,1.6-1.81s-.58-.56-1.74-.36c-.68,.1-1.36,.17-2.03,.22-.68,.05-1.35,.12-2.03,.22-2.52,.29-4.3,.19-5.37-.29-1.06-.48-1.69-1.26-1.89-2.32-.29-2.22,1.11-4.16,4.21-5.8,2.03-1.06,3.6-1.98,4.71-2.76,1.11-.77,2.01-1.6,2.68-2.47,.87-1.16,.48-1.74-1.16-1.74-3.39,.1-6.55,.15-9.5,.15s-5.68,.05-8.19,.15c-.29,0-1.6,.53-3.92,1.6-1.65,.77-3.29,1.57-4.93,2.39-1.65,.82-3.39,1.67-5.22,2.54-.77,.39-1.14,.8-1.09,1.23,.05,.44,.46,.75,1.23,.94,.48,.19,.92,.31,1.31,.36,.39,.05,.82,.12,1.31,.22,.97,.39,2.22,0,3.77-1.16,1.06-.77,2.1-1.55,3.12-2.32,1.02-.77,2.1-1.6,3.26-2.47,1.06-.77,2.34-1.11,3.84-1.02,1.5,.1,2.63,.77,3.41,2.03,.48,.77,.51,1.79,.07,3.05-.44,1.26-1.19,2.32-2.25,3.19-.87,.68-1.69,1.28-2.47,1.81-.77,.53-1.62,1.04-2.54,1.52-.92,.49-1.96,.97-3.12,1.45-1.16,.48-2.56,1.02-4.21,1.6-3.97,1.55-6.16,2.95-6.6,4.21-.44,1.26,.12,2.13,1.67,2.61,1.45,.48,3,.56,4.64,.22,1.64-.34,3.14-.89,4.5-1.67,.58-.39,.89-.77,.94-1.16,.05-.39-.17-1.16-.65-2.32-.29-.58-.31-1.16-.07-1.74,.24-.58,.6-1.04,1.09-1.38,.48-.34,1.09-.48,1.81-.44,.73,.05,1.43,.41,2.1,1.09,.39,.39,1.09,.94,2.1,1.67s2.39,1.72,4.13,2.97c.58,.49,.99,1.11,1.23,1.89,.24,.77,.36,1.57,.36,2.39s-.1,1.57-.29,2.25c-.19,.68-.44,1.11-.73,1.31-1.07,.77-2.15,1.06-3.26,.87-1.11-.19-2.01-.68-2.68-1.45-.19-.1-.77,.05-1.74,.44-.68,.48-1.35,.87-2.03,1.16-.68,.29-1.5,.63-2.47,1.02-1.74,.77-3.84,1.11-6.31,1.02-2.47-.09-4.52-.53-6.16-1.31-1.16-.48-2.49-.75-3.99-.8-1.5-.05-2.64,.17-3.41,.65-2.13,1.26-3.97,1.6-5.51,1.02-1.55-.58-2.32-1.93-2.32-4.06s1.26-4.16,3.77-5.8c1.35-.77,2.68-1.55,3.99-2.32,1.31-.77,2.59-1.55,3.84-2.32,.77-.48,1.11-.89,1.02-1.23-.1-.34-.58-.46-1.45-.36-1.65,.1-3.17,.27-4.57,.51-1.4,.24-2.78,.56-4.13,.94-1.45,.48-2.56,.58-3.34,.29-.77-.29-1.45-1.16-2.03-2.61-.29-.68-.27-1.45,.07-2.32,.34-.87,.87-1.72,1.6-2.54,.73-.82,1.62-1.57,2.68-2.25,1.06-.68,2.22-1.16,3.48-1.45,3-.68,5.51-1.89,7.54-3.63,.68-.58,.89-1.04,.65-1.38-.24-.34-.85-.51-1.81-.51-2.9,.1-5.32,.22-7.25,.36-1.94,.15-3.58,.29-4.93,.44-1.35,.15-2.49,.34-3.41,.58-.92,.24-1.81,.51-2.68,.8-3,.97-5,1.28-6.02,.94-1.02-.34-1.77-1.18-2.25-2.54-.39-.97-.29-2.03,.29-3.19,.58-1.16,1.84-2.61,3.77-4.35,.97-.77,2.13-1.26,3.48-1.45,1.35-.19,3.24,.1,5.66,.87,.77,.2,1.72,.34,2.83,.44,1.11,.1,2.83,.05,5.15-.15,1.84-.19,3.6-.31,5.29-.36,1.69-.05,3.41-.17,5.15-.36,.77-.1,1.28-.29,1.52-.58,.24-.29,.27-.92,.07-1.89-.1-.68-.19-1.33-.29-1.96-.1-.63-.19-1.28-.29-1.96-.29-1.64-.02-3.05,.8-4.21,.82-1.16,2.54-1.84,5.15-2.03,1.64-.19,3.38,.12,5.22,.94,1.84,.82,3.05,2.06,3.63,3.7,.48,1.16,.63,3,.44,5.51,0,.77,.12,1.31,.36,1.6,.24,.29,.89,.44,1.96,.44,1.84-.1,3.79-.17,5.87-.22,2.08-.05,4.28-.07,6.6-.07,1.26,0,2.08-.1,2.47-.29,.39-.19,.58-.63,.58-1.31v-1.74c0-.58-.05-1.21-.15-1.89-.1-1.35,.31-2.76,1.23-4.21,.92-1.45,2.34-2.27,4.28-2.47,.97-.1,2.01,.07,3.12,.51,1.11,.44,2.15,.97,3.12,1.6,.97,.63,1.76,1.33,2.39,2.1,.63,.77,.94,1.45,.94,2.03v1.67c0,.53-.05,1.09-.15,1.67-.39,1.55,.48,2.32,2.61,2.32h9.35c3.14,0,6.36-.1,9.65-.29,3.77-.19,6.5,.02,8.19,.65,1.69,.63,2.63,1.72,2.83,3.26Zm13.2,54.68c-.97,3.87-2.97,7.28-6.02,10.23-3.05,2.95-6.6,5.34-10.66,7.18-4.06,1.83-8.32,3.02-12.76,3.55-4.45,.53-8.46,.26-12.04-.8-2.03-.58-4.35-1.38-6.96-2.39s-5.2-2.08-7.76-3.19c-2.56-1.11-4.98-2.22-7.25-3.34-2.27-1.11-4.04-2.05-5.29-2.83-4.35-2.51-7.9-4.66-10.66-6.45-2.76-1.79-5.25-3.41-7.47-4.86-.87-.58-1.89-1.04-3.05-1.38-1.16-.34-2.35-.63-3.55-.87-1.21-.24-2.32-.39-3.34-.44-1.02-.05-1.72-.02-2.1,.07-3.1,.48-5.34,.07-6.74-1.23-1.4-1.31-1.62-3.5-.65-6.6,.68-2.03,1.52-3.46,2.54-4.28,1.02-.82,2.1-1.28,3.26-1.38,1.45,0,3,.68,4.64,2.03,3.19,2.71,6.04,4.84,8.56,6.38,2.51,1.55,5.46,3,8.85,4.35,.97,.39,1.67,.53,2.1,.44,.44-.1,.89-.39,1.38-.87,2.32-2.42,3.77-5.27,4.35-8.56,.19-1.16,.65-2.03,1.38-2.61,.73-.58,1.55-.94,2.47-1.09,.92-.15,1.86-.12,2.83,.07,.97,.19,1.79,.53,2.47,1.02,1.16,.87,1.84,1.98,2.03,3.34,.19,1.36-.05,2.61-.73,3.77-.39,.58-1.21,1.4-2.47,2.47-1.26,1.07-2.56,1.84-3.92,2.32-1.84,.77-2.78,1.38-2.83,1.81-.05,.44,.7,.85,2.25,1.23,.58,.19,1.64,.44,3.19,.73,1.55,.29,2.71,.53,3.48,.73,.87,.19,1.6,.17,2.18-.07,.58-.24,1.4-.85,2.47-1.81,1.55-1.45,2.95-2.9,4.21-4.35,1.26-1.45,2.61-3.29,4.06-5.51,1.93-3,3.58-4.57,4.93-4.71,1.35-.15,3,.6,4.93,2.25,1.64,1.36,2.59,2.47,2.83,3.34,.24,.87-.12,1.89-1.09,3.05-.87,1.06-1.94,2.06-3.19,2.97-1.26,.92-2.9,1.81-4.93,2.68-.68,.29-1.43,.6-2.25,.94-.82,.34-1.81,.75-2.97,1.23-2.23,1.07-2.08,1.74,.44,2.03,4.16,.58,8.48,.94,12.98,1.09s8.85,.07,13.05-.22,8.07-.75,11.6-1.38c3.53-.63,6.4-1.43,8.63-2.39,1.35-.58,2.25-.73,2.68-.44s.41,1.21-.07,2.76Z"/><path d="M262.09,173.81c-2.83,0-5.48-.36-7.9-1.08-2.03-.58-4.39-1.39-7-2.41-2.64-1.03-5.26-2.1-7.78-3.2-2.56-1.11-5-2.24-7.27-3.35-2.28-1.11-4.07-2.07-5.34-2.85-4.33-2.5-7.93-4.68-10.67-6.46-2.76-1.79-5.25-3.41-7.47-4.86-.82-.55-1.8-.99-2.91-1.32-1.14-.33-2.32-.62-3.51-.86-1.18-.23-2.27-.38-3.26-.43-1.2-.05-1.73,0-1.96,.06-3.28,.52-5.69,.06-7.21-1.35-1.55-1.44-1.81-3.83-.79-7.11,.7-2.12,1.61-3.64,2.7-4.52,1.09-.88,2.28-1.38,3.54-1.49h0c1.6,0,3.27,.72,5,2.14,3.17,2.69,6.03,4.82,8.5,6.34,2.48,1.53,5.43,2.98,8.77,4.31,1.14,.46,1.62,.46,1.81,.41,.34-.07,.72-.32,1.13-.74,2.23-2.33,3.65-5.12,4.21-8.29,.21-1.27,.74-2.26,1.56-2.91,.79-.63,1.7-1.03,2.7-1.19,.97-.15,1.98-.13,3,.08,1.03,.21,1.93,.58,2.66,1.1,1.27,.95,2.02,2.19,2.24,3.67,.21,1.46-.06,2.84-.79,4.09-.43,.65-1.27,1.49-2.57,2.6-1.3,1.1-2.67,1.91-4.07,2.41-2.12,.9-2.45,1.33-2.5,1.41,.07,0,.34,.29,1.87,.68,.58,.2,1.64,.43,3.16,.72,1.54,.29,2.72,.53,3.51,.73,.75,.17,1.38,.15,1.86-.05,.52-.22,1.3-.79,2.32-1.72,1.53-1.43,2.93-2.88,4.16-4.31,1.25-1.44,2.6-3.27,4.02-5.46,2.04-3.16,3.77-4.77,5.3-4.94,1.5-.16,3.24,.61,5.31,2.36,1.74,1.43,2.71,2.6,2.99,3.58,.29,1.03-.11,2.21-1.19,3.5-.89,1.09-1.99,2.12-3.28,3.06-1.28,.93-2.97,1.86-5.03,2.74-.68,.29-1.43,.61-2.25,.94l-2.97,1.23c-.77,.37-1.08,.62-1.2,.74,.16,.08,.55,.23,1.5,.33,4.13,.58,8.48,.94,12.94,1.08,4.46,.15,8.84,.07,13-.22,4.18-.29,8.06-.75,11.55-1.37,3.47-.62,6.34-1.41,8.52-2.36,1.56-.67,2.56-.79,3.16-.39,.66,.44,.71,1.46,.13,3.31-.99,3.94-3.06,7.45-6.15,10.45-3.07,2.98-6.71,5.42-10.8,7.28-4.09,1.85-8.43,3.06-12.91,3.59-1.49,.18-2.94,.27-4.34,.27Zm-64-27.83c.28,0,.59,0,.93,.02,1.04,.05,2.19,.2,3.41,.44,1.22,.24,2.43,.54,3.6,.88,1.21,.35,2.28,.84,3.18,1.44,2.22,1.45,4.71,3.07,7.46,4.86,2.73,1.77,6.31,3.94,10.64,6.44,1.25,.77,3.02,1.71,5.26,2.81,2.25,1.1,4.69,2.22,7.23,3.33,2.51,1.09,5.12,2.16,7.74,3.18,2.59,1.01,4.91,1.81,6.92,2.38,3.5,1.04,7.48,1.3,11.84,.78,4.37-.52,8.62-1.71,12.62-3.51,3.99-1.8,7.53-4.19,10.52-7.08,2.96-2.87,4.94-6.23,5.88-9.99v-.03c.59-1.88,.28-2.19,.28-2.19-.07-.05-.51-.25-2.21,.48-2.25,.98-5.19,1.79-8.74,2.43-3.52,.63-7.44,1.09-11.66,1.38-4.2,.29-8.61,.36-13.1,.22-4.5-.15-8.88-.51-13.03-1.09-1.59-.18-2.32-.53-2.42-1.15-.13-.77,.86-1.36,1.84-1.83l3-1.24c.82-.34,1.57-.65,2.24-.94,1.99-.85,3.62-1.74,4.83-2.63,1.22-.89,2.26-1.86,3.1-2.89,.85-1.02,1.19-1.9,.99-2.6-.15-.52-.73-1.48-2.66-3.08-1.82-1.55-3.36-2.27-4.56-2.14-.82,.09-2.27,.94-4.56,4.49-1.45,2.22-2.83,4.09-4.1,5.57-1.26,1.45-2.69,2.93-4.24,4.39-1.13,1.02-1.98,1.65-2.62,1.91-.68,.28-1.51,.32-2.48,.1-.78-.2-1.95-.44-3.46-.72-1.59-.3-2.66-.54-3.26-.74-1.32-.33-2.7-.8-2.58-1.76,.05-.49,.47-1.09,3.13-2.22,1.32-.47,2.58-1.22,3.79-2.24,1.22-1.03,2.01-1.82,2.37-2.36,.61-1.04,.82-2.17,.65-3.42-.18-1.23-.78-2.21-1.84-3-.61-.43-1.37-.75-2.26-.93-.91-.18-1.8-.2-2.65-.07-.84,.13-1.57,.45-2.23,.98-.62,.5-1.03,1.27-1.2,2.3-.6,3.38-2.1,6.34-4.48,8.82-.57,.57-1.1,.89-1.63,1.01-.55,.12-1.31-.02-2.4-.46-3.39-1.36-6.4-2.83-8.92-4.39-2.52-1.55-5.42-3.71-8.62-6.43-1.54-1.27-3-1.91-4.32-1.91-1.01,.09-2.02,.51-2.95,1.27-.94,.76-1.74,2.12-2.38,4.05-.9,2.87-.72,4.92,.52,6.07,1.28,1.19,3.41,1.56,6.33,1.11,.27-.07,.69-.1,1.27-.1Zm-32.03,19.11c-1.51,0-2.94-.48-4.27-1.42-2.24-1.42-3.46-3.53-3.62-6.25-.15-2.69,1.14-5.52,3.83-8.42,1.72-1.91,3.32-3.8,4.76-5.63,1.43-1.81,3.18-4.29,5.2-7.36,.87-1.31,1.89-1.97,3.03-1.97s2.01,.62,2.36,1.8c1.08,3.43,1.47,7.11,1.18,10.92-.29,3.81-1.58,8.12-3.82,12.8-1.22,2.34-3.14,4.01-5.72,4.97-1.01,.38-1.99,.57-2.94,.57Zm8.93-30.05c-.8,0-1.51,.5-2.19,1.52-2.03,3.09-3.8,5.6-5.25,7.43-1.45,1.84-3.07,3.75-4.81,5.68-2.51,2.69-3.71,5.28-3.57,7.69,.14,2.42,1.18,4.21,3.18,5.48,1.93,1.38,3.98,1.62,6.3,.75,2.34-.87,4.08-2.38,5.17-4.48,2.18-4.55,3.43-8.74,3.72-12.42,.28-3.69-.1-7.23-1.14-10.54h0c-.23-.76-.66-1.1-1.41-1.1Zm31.92-.56c-.27,0-.55,0-.83-.02-2.52-.1-4.66-.55-6.36-1.35-1.07-.45-2.36-.7-3.79-.75-1.39-.05-2.44,.15-3.13,.58-2.26,1.34-4.27,1.69-5.95,1.06-1.75-.66-2.65-2.18-2.65-4.53s1.34-4.49,4-6.22c1.38-.79,2.7-1.56,4.01-2.33,1.3-.77,2.58-1.54,3.84-2.32,.62-.39,.76-.61,.79-.68-.04,0-.15-.02-.41-.02-.13,0-.29,0-.49,.03-1.64,.1-3.16,.27-4.54,.5-1.37,.24-2.74,.55-4.08,.93-1.55,.52-2.75,.61-3.65,.28-.92-.34-1.68-1.29-2.32-2.89-.34-.79-.32-1.7,.07-2.69,.36-.92,.92-1.82,1.69-2.69,.76-.86,1.7-1.64,2.79-2.34,1.11-.71,2.33-1.21,3.64-1.52,2.9-.65,5.37-1.84,7.33-3.52,.58-.49,.57-.71,.57-.71-.04-.05-.27-.3-1.41-.3-2.88,.1-5.31,.22-7.21,.36-1.9,.14-3.55,.29-4.92,.43-1.32,.14-2.44,.33-3.33,.57-.91,.24-1.81,.51-2.65,.79-3.14,1.01-5.21,1.32-6.34,.94-1.16-.39-2.03-1.34-2.56-2.84-.43-1.08-.33-2.29,.31-3.58,.62-1.23,1.89-2.7,3.88-4.5,1.05-.84,2.3-1.37,3.74-1.57,1.44-.21,3.37,.08,5.88,.89,.71,.18,1.64,.32,2.72,.41,1.08,.1,2.79,.05,5.06-.15,1.82-.19,3.61-.31,5.32-.36,1.68-.05,3.4-.17,5.11-.36,.86-.11,1.12-.32,1.2-.4,0,0,.21-.26-.03-1.47-.1-.7-.2-1.35-.29-1.98-.1-.63-.2-1.28-.29-1.96-.31-1.76-.01-3.3,.89-4.56,.92-1.3,2.72-2.03,5.52-2.24,1.7-.2,3.55,.13,5.46,.98,1.96,.88,3.27,2.22,3.89,3.99,.51,1.22,.66,3.1,.46,5.72,0,.82,.16,1.13,.25,1.24,0,.01,.23,.25,1.57,.25,1.81-.09,3.79-.17,5.86-.22,2.12-.05,4.34-.07,6.61-.07,1.54,0,2.06-.15,2.24-.24,.25-.13,.31-.54,.31-.86v-1.74c0-.54-.05-1.15-.14-1.82-.11-1.49,.33-3.01,1.31-4.54,1-1.58,2.56-2.48,4.65-2.7,1.05-.1,2.17,.08,3.35,.54,1.14,.44,2.21,1,3.21,1.64,1.01,.66,1.85,1.4,2.51,2.21,.71,.88,1.06,1.64,1.06,2.35v1.67c0,.55-.05,1.14-.15,1.75-.14,.55-.1,.92,.1,1.17,.29,.37,.99,.57,2.02,.57h9.35c3.15,0,6.38-.1,9.62-.29,3.88-.2,6.62,.03,8.4,.68,1.87,.7,2.93,1.93,3.15,3.67h0c.1,.95,.08,1.72-.08,2.36-.19,.75-.8,1.32-1.83,1.72-.92,.36-2.32,.61-4.28,.76-1.89,.15-4.56,.22-7.94,.22-2.6-.1-4.82-.14-6.82-.14h-6.24c-.12,0-.4,.04-.94,.31-.5,.25-1.34,.62-2.5,1.1-2.76,1.14-5,2.09-6.66,2.82-1.61,.71-2.95,1.41-4,2.07-.75,.47-.75,.92-.66,1.26,.12,.44,1.07,.65,2.54,.57,1.5-.09,2.59-.23,3.22-.42,.61-.17,1.18-.48,1.7-.92,.8-.5,1.49-1,2.1-1.52,.65-.55,1.37-1.07,2.16-1.56,1.82-1.31,3.27-1.96,4.4-1.96s2.43,.66,3.89,2.02c1,.89,1.32,2.23,.95,3.95-.38,1.71-1.52,3-3.4,3.83-4.62,1.92-8.26,3.6-10.84,4.99-2.55,1.37-4.55,2.82-5.96,4.32-.36,.36-.43,.74-.26,1.23,.21,.59,1.18,.78,1.96,.83,4.96,.35,6.77-.43,7.43-1.14,.41-.41,.63-.86,.67-1.37,.04-.53-.02-.96-.17-1.26-1.11-1.66-.49-2.92,.23-3.69,.71-.75,2.02-1.42,4.21-.32,.51,.3,1.27,.68,2.3,1.15,1.04,.47,2.19,.91,3.42,1.28,.95,.31,1.94,.96,2.95,1.93,1.01,.96,1.73,1.92,2.14,2.84,1.15,2.82,1.14,4.83-.03,6-1.17,1.18-3.05,1.19-5.57,.03-1.73-.81-2.56-1.01-2.95-1.04-.5-.03-.93,.09-1.32,.4-.6,.5-1.28,.96-2.04,1.36-.74,.39-1.65,.84-2.71,1.32-1.58,.79-3.26,1.25-4.96,1.35-1.72,.1-3.16-.11-4.3-.62-1.5-.65-2.97-1.11-4.37-1.34-1.78-.29-2.41-.19-2.63-.1-2.66,.82-4.75,.91-6.25,.29-1.54-.64-2.59-1.87-3.12-3.66-.32-1.4-.19-2.68,.4-3.85,.57-1.15,1.39-2.04,2.44-2.67,.88-.49,1.79-1.02,2.76-1.59,.96-.58,1.97-1.25,3.01-2.01,1.05-.77,1.31-1.18,1.37-1.33-.13-.03-.44-.06-1.14,.06-.71,.1-1.41,.18-2.08,.22-.65,.05-1.33,.12-2,.21-2.65,.31-4.49,.2-5.64-.33-1.22-.55-1.95-1.46-2.17-2.69-.32-2.46,1.18-4.59,4.46-6.33,2.01-1.05,3.57-1.97,4.66-2.72,1.06-.74,1.93-1.54,2.57-2.36,.35-.46,.36-.68,.34-.72,0,0-.15-.21-1.11-.21-6.53,.19-12.54,.09-17.68,.29-.14,.01-.77,.2-3.73,1.55-1.64,.77-3.28,1.57-4.92,2.39-1.65,.82-3.39,1.67-5.23,2.54-.62,.31-.82,.58-.81,.72,.02,.2,.33,.38,.86,.51,.5,.2,.9,.31,1.25,.35,.4,.05,.84,.13,1.34,.22,.88,.35,1.98-.02,3.38-1.07,1.07-.77,2.1-1.54,3.12-2.32,1.02-.77,2.1-1.6,3.27-2.47,1.16-.84,2.56-1.22,4.18-1.11,1.66,.11,2.94,.87,3.8,2.27,.56,.9,.6,2.07,.12,3.47-.46,1.34-1.27,2.49-2.4,3.41-.89,.69-1.72,1.31-2.5,1.84-.79,.54-1.66,1.07-2.59,1.55-.28,.15-.57,.3-.88,.44,.22-.02,.44-.02,.68,0,.85,.06,1.66,.47,2.42,1.23,.36,.36,1.04,.9,2.04,1.62,1.02,.73,2.39,1.72,4.14,2.97,.68,.57,1.15,1.28,1.42,2.14,.26,.83,.39,1.68,.39,2.54s-.1,1.66-.31,2.38c-.23,.8-.53,1.32-.93,1.58-1.16,.84-2.38,1.16-3.63,.95-1.16-.2-2.12-.7-2.85-1.48-.11,.03-.45,.1-1.25,.41-.68,.48-1.38,.88-2.07,1.18-.68,.29-1.51,.63-2.48,1.02-1.59,.71-3.5,1.07-5.69,1.07Zm-11.36-3.13c.14,0,.28,0,.42,0,1.56,.05,2.96,.33,4.17,.84,1.6,.75,3.6,1.18,5.99,1.27,2.38,.1,4.43-.23,6.09-.97,.98-.39,1.8-.73,2.47-1.02,.65-.28,1.3-.65,1.94-1.11l.11-.06c1.38-.55,1.84-.57,2.14-.42l.16,.12c.6,.69,1.38,1.11,2.39,1.29,.98,.17,1.92-.08,2.88-.78,.1-.07,.32-.28,.54-1.04,.18-.63,.27-1.34,.27-2.11s-.11-1.52-.34-2.25c-.21-.68-.57-1.22-1.08-1.65-1.71-1.23-3.09-2.23-4.1-2.95-1.06-.76-1.77-1.32-2.17-1.72-.58-.58-1.19-.9-1.78-.94-.61-.04-1.1,.07-1.49,.35-.41,.29-.71,.67-.91,1.16-.19,.44-.17,.88,.06,1.33,.71,1.7,.74,2.3,.7,2.6-.07,.55-.45,1.04-1.16,1.52-1.42,.81-2.98,1.39-4.67,1.74-1.72,.35-3.37,.28-4.9-.23-.97-.3-1.63-.77-1.94-1.39-.27-.53-.28-1.16-.04-1.85,.49-1.42,2.74-2.89,6.89-4.51,1.69-.6,3.06-1.12,4.19-1.59,1.14-.47,2.18-.96,3.08-1.43,.9-.47,1.73-.97,2.49-1.49,.76-.52,1.58-1.13,2.44-1.79,.98-.8,1.68-1.8,2.08-2.96,.38-1.1,.37-1.98-.02-2.62-.69-1.12-1.68-1.71-3.02-1.8-1.39-.09-2.54,.21-3.52,.92-1.15,.87-2.24,1.69-3.25,2.46-1.02,.78-2.06,1.55-3.13,2.33-1.71,1.28-3.1,1.68-4.25,1.22-.38-.07-.81-.14-1.18-.19-.43-.05-.91-.18-1.43-.39-.93-.23-1.47-.69-1.54-1.35-.08-.66,.38-1.25,1.36-1.73,1.84-.87,3.58-1.72,5.22-2.54,1.65-.82,3.29-1.62,4.94-2.4,3.59-1.64,3.93-1.64,4.13-1.64,5.1-.2,11.11-.1,17.68-.29h0c.71,0,1.67,.08,2.01,.77,.35,.71-.25,1.51-.44,1.77-.71,.92-1.65,1.78-2.8,2.58-1.12,.78-2.73,1.72-4.77,2.79-2.91,1.55-4.21,3.28-3.94,5.29,.16,.88,.68,1.52,1.6,1.93,.97,.44,2.69,.53,5.1,.25,.68-.09,1.37-.17,2.05-.22,.65-.04,1.32-.12,2-.21,1.03-.17,1.65-.11,2.01,.19,.2,.17,.3,.4,.3,.67,0,.63-.56,1.31-1.8,2.22-1.06,.77-2.1,1.46-3.08,2.06-.97,.58-1.9,1.12-2.77,1.6-.87,.52-1.56,1.28-2.04,2.25-.48,.97-.59,2-.32,3.15,.43,1.48,1.27,2.46,2.53,2.99,1.29,.53,3.15,.43,5.54-.31,.54-.22,1.55-.21,3.13,.06,1.48,.25,3.03,.72,4.61,1.41,.99,.45,2.28,.63,3.83,.54,1.57-.09,3.11-.51,4.59-1.25,1.06-.48,1.95-.92,2.67-1.3,.69-.37,1.32-.79,1.87-1.25,.59-.47,1.27-.68,2.03-.62,.7,.06,1.77,.43,3.29,1.13,2.1,.96,3.59,1.02,4.44,.17s.79-2.5-.18-4.9c-.35-.79-1-1.64-1.91-2.51-.91-.86-1.77-1.44-2.57-1.7-1.26-.39-2.45-.83-3.53-1.33-1.07-.48-1.87-.88-2.37-1.19-1.3-.65-2.3-.61-3.01,.13-.71,.75-.74,1.52-.09,2.5,.26,.52,.35,1.12,.3,1.84-.06,.75-.38,1.42-.94,1.98-1.17,1.28-3.86,1.75-8.22,1.45-1.57-.11-2.52-.61-2.83-1.49-.31-.86-.14-1.64,.48-2.26,1.47-1.57,3.57-3.09,6.21-4.51,2.61-1.4,6.29-3.09,10.92-5.03,1.59-.71,2.52-1.73,2.82-3.13,.3-1.37,.09-2.35-.64-3-1.26-1.17-2.34-1.76-3.22-1.76s-2.19,.6-3.84,1.79c-.77,.49-1.46,.98-2.07,1.5-.65,.55-1.38,1.08-2.16,1.56-.57,.49-1.27,.86-2.01,1.07-.72,.21-1.84,.36-3.44,.45-.79,.04-3.17,.17-3.56-1.31-.18-.66-.13-1.6,1.09-2.37,1.08-.69,2.47-1.41,4.12-2.14,1.67-.74,3.92-1.69,6.68-2.83,1.14-.47,1.96-.83,2.43-1.07,.56-.28,1.01-.42,1.38-.42h6.24c2.01,0,4.25,.05,6.84,.14,3.34,0,5.98-.07,7.85-.22,1.83-.14,3.17-.37,3.99-.69,.71-.27,1.12-.62,1.22-1.03,.13-.51,.15-1.19,.06-2-.17-1.36-.99-2.29-2.51-2.85-1.62-.6-4.31-.81-7.99-.62-3.25,.19-6.5,.29-9.67,.29h-9.35c-1.39,0-2.31-.31-2.81-.95-.39-.5-.49-1.17-.28-1.99,.08-.52,.13-1.05,.13-1.55v-1.67c0-.46-.28-1.03-.83-1.72-.59-.73-1.36-1.4-2.28-2-.94-.61-1.95-1.13-3.03-1.55-1.03-.4-2-.56-2.89-.48-1.79,.18-3.07,.91-3.91,2.24-.86,1.35-1.25,2.66-1.16,3.9,.1,.67,.15,1.33,.15,1.92v1.74c0,1.09-.47,1.56-.86,1.75-.46,.23-1.32,.34-2.69,.34-2.26,0-4.48,.02-6.59,.07-2.07,.05-4.04,.12-5.86,.22h0c-1.29,0-2.01-.19-2.36-.61-.32-.38-.48-1.01-.48-1.92,.19-2.46,.05-4.24-.4-5.32-.55-1.55-1.65-2.66-3.37-3.43-1.75-.78-3.42-1.08-4.96-.9-2.47,.18-4.07,.8-4.8,1.82-.75,1.06-.98,2.31-.71,3.83,.1,.69,.2,1.34,.29,1.97,.1,.63,.19,1.29,.29,1.96,.22,1.12,.17,1.85-.18,2.28-.33,.4-.94,.64-1.85,.76-1.74,.2-3.49,.32-5.2,.37-1.68,.05-3.45,.17-5.26,.36-2.35,.2-4.11,.25-5.25,.15-1.13-.1-2.11-.25-2.91-.45-2.36-.75-4.19-1.04-5.46-.86-1.26,.18-2.35,.63-3.24,1.35-1.86,1.67-3.09,3.08-3.64,4.18-.52,1.04-.61,1.95-.27,2.78,.44,1.23,1.07,1.96,1.94,2.25,.62,.21,2.12,.21,5.71-.94,.86-.29,1.77-.56,2.71-.81,.94-.25,2.12-.45,3.48-.59,1.37-.15,3.04-.29,4.95-.44,1.92-.14,4.36-.27,7.27-.36h0c1.18,0,1.88,.23,2.23,.71,.42,.59,.17,1.28-.73,2.05-2.09,1.79-4.7,3.04-7.76,3.73-1.19,.27-2.31,.74-3.32,1.38-1.02,.65-1.88,1.37-2.58,2.16-.68,.78-1.19,1.58-1.5,2.39-.29,.75-.32,1.38-.08,1.94,.53,1.32,1.11,2.1,1.75,2.34,.66,.25,1.67,.15,3-.3,1.4-.4,2.81-.72,4.21-.96,1.42-.24,2.97-.42,4.62-.51,.4-.04,1.7-.19,1.96,.72,.22,.79-.6,1.4-1.23,1.8-1.26,.78-2.55,1.55-3.85,2.33-1.31,.78-2.64,1.55-4,2.32-2.36,1.54-3.52,3.3-3.52,5.37,0,1.91,.65,3.09,2,3.59,1.39,.52,3.1,.19,5.08-.98,.78-.49,1.85-.73,3.26-.73Zm17.62-13.64c-.14,.06-.28,.12-.42,.18-1.15,.48-2.53,1.01-4.23,1.61-4.72,1.84-6.03,3.14-6.29,3.9-.15,.44-.16,.79-.01,1.08,.19,.37,.64,.67,1.35,.89,1.37,.46,2.84,.53,4.39,.21,1.59-.33,3.05-.87,4.35-1.61,.41-.27,.67-.56,.7-.79,.01-.1,0-.56-.62-2.06-.34-.68-.37-1.41-.07-2.13,.2-.49,.49-.92,.86-1.26Z"/></g><g><path class="cls-1" d="M436.36,159.63c-.97,2.13-2.23,4.09-3.77,5.87-1.55,1.79-3.29,3.12-5.22,3.99-1.65,.68-3.12,1.16-4.42,1.45-1.31,.29-2.64,.41-3.99,.36-1.36-.05-2.76-.26-4.21-.65-1.45-.39-3.04-.92-4.79-1.6-1.26-.48-3.8-1.09-7.62-1.81-3.82-.73-8.2-1.33-13.13-1.81-4.74-.48-9.65-.72-14.72-.72s-10.23,.1-15.45,.29c-1.74,0-3.87,.07-6.38,.22-2.52,.15-5.08,.29-7.69,.44-2.61,.14-5.1,.32-7.47,.51-2.37,.19-4.23,.34-5.58,.43-2.23,.29-4.09,.53-5.58,.73-1.5,.2-2.76,.39-3.77,.58-1.02,.2-1.86,.39-2.54,.58-.68,.2-1.26,.39-1.74,.58-1.65,.78-3.17,1.19-4.57,1.23-1.4,.05-2.54-.19-3.41-.73-.87-.53-1.43-1.23-1.67-2.1-.24-.87,.02-1.88,.8-3.04,1.26-2.03,3.19-4.06,5.8-6.09,1.93-1.55,3.82-2.39,5.66-2.54,1.84-.15,3.58,.02,5.22,.51,1.93,.58,4.04,.97,6.31,1.16,2.27,.19,4.71,.1,7.32-.29,.97-.19,3.46-.36,7.47-.51,4.01-.15,9.06-.22,15.16-.22,1.64,0,2.51-.34,2.61-1.02,.1-.48,.19-1.04,.29-1.67,.1-.63,.24-1.33,.44-2.1,.39-.97-.2-1.45-1.74-1.45-5.51,0-9.89,.1-13.13,.29-3.24,.19-5.58,.53-7.03,1.02-3.77,1.07-6.33,1.11-7.69,.15-1.35-.97-1.16-2.47,.58-4.5,1.64-1.93,3.48-3.26,5.51-3.99,2.03-.73,4.88-.75,8.56-.07,.68,.19,2.03,.27,4.06,.22,2.03-.05,4.88-.31,8.56-.8,1.06-.19,1.74-.36,2.03-.51,.29-.15,.44-.41,.44-.8s-.02-.82-.07-1.31c-.05-.48-.12-1.06-.22-1.74-.1-.97-1.21-1.45-3.34-1.45-3.29,0-7.16,.22-11.6,.65-4.45,.44-8.7,1.09-12.76,1.96-2.52,.68-3.99,.17-4.42-1.52-.44-1.69,.46-3.65,2.68-5.87,1.35-1.35,2.92-2.22,4.71-2.61,1.79-.39,4.08-.19,6.89,.58,.97,.29,2.51,.46,4.64,.51,2.13,.05,4.5-.17,7.11-.65,.48-.1,.8-.24,.94-.44,.15-.19,.12-.68-.07-1.45-.19-.58-.29-1.18-.29-1.81v-2.1c0-.77-.82-.92-2.47-.44-1.55,.49-3.55,.99-6.02,1.52-2.47,.53-5.1,1.07-7.9,1.6-2.81,.53-5.68,1.04-8.63,1.52-2.95,.48-5.63,.87-8.05,1.16-2.61,.39-4.71,.63-6.31,.73-1.6,.1-2.88,.05-3.84-.15-.97-.19-1.65-.58-2.03-1.16-.39-.58-.68-1.4-.87-2.47-.29-2.03,.19-3.55,1.45-4.57,1.26-1.02,3.19-1.38,5.8-1.09,1.35,.19,2.95,.15,4.79-.15,.97-.1,1.55-.92,1.74-2.47,.19-3.09,.34-6.62,.44-10.59,.1-3.96,.05-7.59-.15-10.88,0-1.06-.22-1.74-.65-2.03s-1.43-.24-2.97,.15c-3.48,.78-5.56,.36-6.24-1.23-.68-1.6,.24-3.5,2.76-5.73,1.64-1.55,3.46-2.56,5.44-3.05,1.98-.48,4.23-.39,6.74,.29,1.45,.39,3.46,.65,6.02,.8,2.56,.15,4.81,.12,6.74-.07,1.26-.1,3.34-.15,6.24-.15s5.97,.05,9.21,.15c3.24,.1,6.33,.24,9.28,.44,2.95,.19,5.15,.44,6.6,.73,1.06,.19,1.76,.51,2.1,.94,.34,.44,.51,1.09,.51,1.96,0,1.06-.24,1.98-.73,2.76-.48,.77-1.26,1.16-2.32,1.16-2.23,0-3.72,.27-4.5,.8-.77,.53-1.16,1.38-1.16,2.54,.1,1.94,.17,4.3,.22,7.11,.05,2.81,.02,6.04-.07,9.72,0,.48,.22,.94,.65,1.38,.44,.44,1.18,.6,2.25,.51,4.06-.1,6.24,.48,6.53,1.74,.29,1.26-1.5,2.37-5.37,3.34-2.71,.68-4.06,1.84-4.06,3.48v1.67c0,.63-.05,1.19-.15,1.67-.1,.68,.39,1.02,1.45,1.02,6.38-.1,12.74,.02,19.07,.36,6.33,.34,11.72,.7,16.17,1.09,2.8,.19,4.54,.49,5.22,.87,.68,.39,.96,1.06,.87,2.03-.2,1.36-.65,2.23-1.38,2.61-.72,.39-2.3,.58-4.71,.58-2.81,0-6.48,.02-11.02,.07-4.55,.05-9.19,.12-13.92,.22-1.06,0-1.77,.12-2.1,.36-.34,.24-.56,.65-.65,1.23-.1,.48-.15,.92-.15,1.31v1.31c0,.78,.44,1.16,1.31,1.16,1.64,0,3.53,.05,5.66,.15,2.13,.1,4.28,.22,6.45,.36s4.28,.29,6.31,.44,3.82,.27,5.37,.36c2.51,.19,4.11,.51,4.79,.94,.68,.44,.92,1.19,.73,2.25-.58,2.9-2.42,4.26-5.51,4.06-2.61-.1-6.02-.17-10.23-.22-4.21-.05-8.63-.07-13.27-.07-.97,0-1.45,.48-1.45,1.45,0,1.45,.24,2.64,.73,3.55,.48,.92,1.02,1.38,1.6,1.38,2.42-.1,4.64-.12,6.67-.07,2.03,.05,4.11,.12,6.24,.22,8.51,.29,15.96,.36,22.34,.22,6.38-.15,11.89-.41,16.54-.8,1.16-.1,1.96,.17,2.39,.8,.44,.63,.36,1.57-.22,2.83Zm-76.44-43.66c0-.77-.15-1.31-.44-1.6s-.97-.44-2.03-.44c-.87,0-2.03,.02-3.48,.07-1.45,.05-2.95,.1-4.5,.15-1.55,.05-3.05,.1-4.5,.15-1.45,.05-2.61,.07-3.48,.07-1.07,.1-1.77,.31-2.1,.65-.34,.34-.51,.9-.51,1.67,.1,1.06,.31,1.79,.65,2.18,.34,.39,1.09,.53,2.25,.44,2.51-.19,5.15-.44,7.9-.73,2.76-.29,5.39-.58,7.9-.87,1.55-.29,2.32-.87,2.32-1.74Zm-.15-9.43c0-.87-.17-1.5-.51-1.89-.34-.39-1.04-.58-2.1-.58s-2.32,.02-3.77,.07c-1.45,.05-2.95,.07-4.5,.07s-3.02,.02-4.42,.07c-1.4,.05-2.49,.07-3.26,.07-1.36,0-2.03,.87-2.03,2.61,0,1.65,.73,2.37,2.18,2.18,.77,0,1.86-.02,3.26-.07,1.4-.05,2.88-.07,4.42-.07s3.05-.02,4.5-.07c1.45-.05,2.61-.07,3.48-.07,1.16,.1,1.91-.02,2.25-.36s.51-.99,.51-1.96Zm0-9.57c0-1.35-.22-2.25-.65-2.68s-1.48-.7-3.12-.8h-13.63c-1.84,.1-2.76,1.16-2.76,3.19,0,.97,.15,1.62,.44,1.96,.29,.34,.87,.46,1.74,.36h15.95c1.35,0,2.03-.68,2.03-2.03Zm65.7,4.5c-.87,2.9-1.52,5.44-1.96,7.61s-.8,4.62-1.09,7.32c-.48,4.35-1.86,7.18-4.13,8.48-2.27,1.31-5,.99-8.19-.94-1.36-.77-2.9-1.31-4.64-1.6-1.74-.29-4.26-.39-7.54-.29-1.16,.1-2.05,.24-2.68,.44-.63,.19-1.09,.44-1.38,.73-.49,.49-.97,.85-1.45,1.09-.48,.24-1.11,.46-1.88,.65-1.94,.58-3.58,.46-4.93-.36-1.35-.82-2.18-2.49-2.47-5-.39-2.8-.85-6.14-1.38-10.01-.53-3.87-.99-7.2-1.38-10.01-.49-2.71-.63-4.66-.44-5.87,.19-1.21,.82-2.34,1.89-3.41s2.39-1.64,3.99-1.74c1.6-.1,3.07,.19,4.42,.87,1.35,.58,2.32,.94,2.9,1.09s1.31,.12,2.18-.07c2.13-.29,3.94-.51,5.44-.65,1.5-.15,2.76-.17,3.77-.07,1.02,.1,1.91,.27,2.68,.51,.77,.24,1.59,.6,2.46,1.09,1.26,.68,2.76,.53,4.5-.44,.48-.29,1.13-.46,1.96-.51,.82-.05,1.67-.02,2.54,.07,.87,.1,1.71,.31,2.54,.65,.82,.34,1.52,.7,2.1,1.09,1.64,1.35,2.59,2.71,2.83,4.06,.24,1.35,.02,3.1-.65,5.22Zm-13.05,1.31c0-1.35-.31-2.37-.94-3.05-.63-.68-1.86-1.11-3.7-1.31-1.65-.19-3.53-.27-5.66-.22-2.13,.05-4.11,.17-5.95,.36-1.65,.2-2.73,.56-3.26,1.09-.53,.53-.7,1.43-.51,2.68,.19,1.07,.31,2.35,.36,3.84,.05,1.5,.07,2.93,.07,4.28,0,2.81,1.3,4.26,3.92,4.35,1.54,.1,3.19,.15,4.93,.15s3.29-.05,4.64-.15c1.93-.1,3.34-.53,4.21-1.31,.87-.77,1.35-1.93,1.45-3.48,.1-1.06,.19-2.27,.29-3.63,.09-1.35,.14-2.56,.14-3.63Z"/><path d="M419.52,171.82c-.2,0-.39,0-.59,0-1.4-.05-2.85-.28-4.32-.67-1.46-.39-3.09-.93-4.84-1.61-1.23-.47-3.76-1.07-7.53-1.79-3.77-.72-8.17-1.32-13.08-1.81-9.43-.96-19.74-.82-30.1-.43-1.74,0-3.88,.07-6.37,.22-2.52,.15-5.08,.29-7.69,.44-2.53,.14-5.04,.31-7.46,.51-2.37,.2-4.24,.34-5.59,.44l-5.56,.72c-1.52,.2-2.74,.39-3.74,.58-1.02,.2-1.84,.38-2.49,.57-.67,.19-1.24,.38-1.69,.56-1.67,.79-3.27,1.22-4.74,1.27-1.5,.05-2.73-.22-3.69-.8-.98-.6-1.62-1.4-1.89-2.4-.28-1.01,0-2.17,.86-3.46,1.27-2.05,3.26-4.15,5.91-6.21,2-1.6,4-2.49,5.92-2.64,1.88-.15,3.7,.03,5.4,.53,1.9,.57,3.99,.95,6.21,1.14,2.22,.19,4.65,.09,7.21-.29,.97-.2,3.51-.37,7.52-.51,3.99-.14,9.1-.22,15.17-.22,1.27,0,2.06-.22,2.12-.59,.1-.5,.19-1.05,.29-1.67,.1-.64,.25-1.36,.44-2.15,.07-.19,.14-.42,.07-.53-.03-.05-.26-.3-1.32-.3-5.46,0-9.87,.1-13.1,.29-3.18,.19-5.5,.52-6.91,.99-3.98,1.13-6.64,1.15-8.14,.08-.63-.45-1-1.02-1.08-1.69-.12-1,.39-2.16,1.57-3.54,1.69-1.99,3.62-3.38,5.72-4.13,2.13-.76,5.01-.79,8.82-.09,.48,.14,1.5,.28,3.96,.21,2.01-.05,4.88-.31,8.5-.79,1.3-.24,1.73-.39,1.87-.46,.06-.03,.16-.08,.16-.35,0-.37-.02-.79-.07-1.26-.05-.47-.12-1.05-.22-1.72-.09-.85-1.59-1.02-2.84-1.02-3.26,0-7.15,.22-11.55,.65-4.4,.43-8.68,1.08-12.71,1.95-1.63,.44-2.86,.4-3.75-.11-.63-.37-1.05-.96-1.26-1.77-.48-1.87,.47-4,2.81-6.35,1.42-1.42,3.09-2.34,4.96-2.75,1.86-.4,4.26-.2,7.13,.59,.93,.28,2.45,.44,4.52,.49,2.09,.05,4.44-.17,7-.64,.5-.1,.62-.22,.63-.24,0,0,.05-.18-.16-1.03-.2-.59-.3-1.25-.3-1.93v-2.1c0-.11-.03-.13-.04-.14-.03-.02-.37-.23-1.79,.18-1.54,.48-3.58,1-6.05,1.53-2.47,.53-5.13,1.07-7.92,1.6-2.77,.53-5.67,1.04-8.64,1.53-2.92,.48-5.64,.87-8.07,1.16-2.61,.39-4.74,.63-6.34,.73-1.63,.1-2.97,.05-3.97-.15-1.1-.22-1.89-.68-2.35-1.37-.43-.64-.74-1.51-.95-2.65-.32-2.23,.23-3.92,1.63-5.05,1.36-1.1,3.43-1.5,6.17-1.2,1.31,.19,2.87,.14,4.65-.14,.29-.03,1.08-.11,1.32-2.03,.19-3.04,.33-6.6,.43-10.54,.09-3.94,.05-7.58-.14-10.84,0-1.18-.27-1.54-.43-1.64-.11-.07-.62-.27-2.58,.21-3.75,.83-6.04,.32-6.82-1.52-.77-1.81,.2-3.93,2.88-6.3,1.69-1.59,3.59-2.65,5.65-3.16,2.05-.5,4.41-.4,6.99,.29,1.41,.38,3.4,.64,5.92,.78,2.53,.14,4.78,.12,6.67-.07,1.29-.1,3.4-.15,6.29-.15s5.94,.05,9.22,.15c3.23,.1,6.36,.24,9.3,.44,3.01,.2,5.19,.44,6.67,.73,1.19,.22,1.98,.59,2.4,1.13,.41,.53,.61,1.29,.61,2.27,0,1.15-.27,2.17-.8,3.02-.58,.93-1.5,1.4-2.74,1.4-2.63,0-3.74,.39-4.21,.71-.63,.44-.94,1.13-.94,2.13,.09,1.91,.17,4.31,.22,7.1,.05,2.78,.02,6.06-.07,9.74,0,.34,.17,.67,.51,1.01,.32,.32,.96,.45,1.85,.36,4.47-.1,6.7,.57,7.06,2.13,.49,2.12-3.04,3.26-5.73,3.93-2.48,.62-3.68,1.6-3.68,3v1.67c0,.65-.05,1.24-.15,1.76-.02,.15,.02,.2,.04,.21,.04,.05,.23,.2,.92,.2,6.37-.09,12.8,.03,19.1,.36,6.31,.34,11.75,.7,16.19,1.09,3.86,.27,4.95,.66,5.43,.93,.59,.34,1.26,1.05,1.12,2.51-.22,1.54-.77,2.54-1.64,3-.8,.43-2.42,.64-4.95,.64-2.81,0-6.48,.03-11.02,.07-4.55,.05-9.18,.12-13.92,.22-1.3,0-1.71,.19-1.82,.27-.23,.16-.38,.47-.45,.91-.09,.46-.14,.87-.14,1.22v1.3c0,.35,.06,.66,.81,.66,1.63,0,3.49,.05,5.68,.15,2.13,.1,4.29,.22,6.47,.36,2.18,.15,4.28,.29,6.31,.44,2.03,.14,3.81,.27,5.36,.36,2.67,.21,4.26,.53,5.02,1.02,.59,.38,1.23,1.17,.95,2.76-.63,3.14-2.7,4.69-6.04,4.47-2.58-.09-6.02-.17-10.2-.22-4.27-.05-8.73-.07-13.26-.07-.69,0-.95,.26-.95,.95,0,1.37,.22,2.48,.67,3.32,.27,.51,.68,1.11,1.15,1.11,2.42-.09,4.67-.12,6.68-.07,2.04,.05,4.12,.12,6.25,.22,8.45,.29,15.96,.36,22.3,.22,6.34-.14,11.9-.41,16.5-.79,1.35-.11,2.3,.23,2.85,1.01,.54,.78,.48,1.9-.17,3.32-.98,2.16-2.28,4.17-3.85,5.99-1.59,1.83-3.4,3.22-5.39,4.12-1.68,.69-3.19,1.19-4.52,1.48-1.15,.25-2.33,.38-3.53,.38Zm-45.02-7.61c5.06,0,10.03,.25,14.77,.73,4.94,.49,9.37,1.1,13.17,1.82,3.82,.73,6.42,1.34,7.7,1.84,1.72,.67,3.31,1.2,4.73,1.58,1.4,.37,2.78,.59,4.1,.64,1.3,.05,2.6-.07,3.86-.35,1.27-.28,2.73-.76,4.34-1.42,1.85-.83,3.54-2.13,5.03-3.85,1.51-1.75,2.75-3.68,3.69-5.75h0c.5-1.08,.58-1.87,.26-2.34-.32-.47-.97-.66-1.94-.58-4.63,.39-10.2,.65-16.56,.8-6.36,.14-13.89,.07-22.36-.22-2.13-.1-4.2-.17-6.23-.22-1.99-.05-4.22-.02-6.64,.07h0c-.8,0-1.48-.55-2.06-1.65-.52-.98-.78-2.26-.78-3.79,0-1.24,.71-1.95,1.95-1.95,4.54,0,9,.02,13.28,.07,4.19,.05,7.64,.12,10.24,.22,2.84,.18,4.48-1.02,5-3.66,.2-1.13-.19-1.53-.51-1.73-.41-.27-1.54-.63-4.55-.87-1.54-.09-3.33-.22-5.36-.36-2.03-.15-4.13-.29-6.31-.44-2.17-.14-4.32-.26-6.44-.36-2.18-.1-4.02-.14-5.63-.14-1.15,0-1.81-.61-1.81-1.66v-1.3c0-.42,.05-.89,.15-1.4,.11-.7,.4-1.22,.85-1.54,.44-.31,1.2-.46,2.39-.46,4.73-.09,9.37-.17,13.92-.22,4.55-.05,8.22-.07,11.03-.07s4.03-.28,4.48-.52c.57-.3,.95-1.06,1.12-2.24,.1-.99-.31-1.35-.62-1.53-.42-.24-1.63-.57-5.01-.81-4.43-.38-9.87-.75-16.16-1.09-6.28-.33-12.69-.45-19.04-.36-.82,0-1.36-.18-1.68-.55-.16-.19-.34-.52-.27-1.04,.09-.48,.14-1.01,.14-1.6v-1.67c0-1.89,1.49-3.23,4.44-3.97,4.81-1.2,5.1-2.31,5-2.74-.13-.56-1.08-1.47-6.03-1.35-1.2,.11-2.06-.1-2.61-.65-.53-.53-.8-1.11-.8-1.73,.1-3.68,.12-6.94,.07-9.71-.05-2.78-.12-5.16-.22-7.09,0-1.35,.46-2.35,1.38-2.97,.87-.6,2.43-.89,4.78-.89,.89,0,1.51-.3,1.9-.93,.43-.69,.65-1.53,.65-2.49,0-.75-.14-1.31-.4-1.65-.18-.23-.63-.54-1.8-.76-1.42-.28-3.62-.52-6.54-.72-2.93-.19-6.05-.34-9.26-.43-3.27-.1-6.36-.15-9.19-.15s-4.94,.05-6.2,.14c-1.93,.2-4.22,.22-6.81,.07-2.59-.15-4.65-.42-6.12-.81-2.42-.65-4.61-.75-6.5-.29-1.89,.46-3.64,1.45-5.21,2.92-2.34,2.07-3.22,3.8-2.64,5.17,.56,1.33,2.47,1.65,5.67,.94,1.74-.43,2.78-.46,3.36-.07,.59,.39,.88,1.19,.88,2.45,.19,3.25,.24,6.92,.15,10.89-.1,3.95-.24,7.52-.44,10.61-.29,2.28-1.35,2.85-2.19,2.93-1.85,.29-3.52,.34-4.91,.14-2.45-.27-4.27,.06-5.42,.98-1.12,.9-1.54,2.25-1.27,4.11,.18,.97,.44,1.74,.79,2.26,.31,.46,.88,.78,1.71,.95,.92,.18,2.17,.23,3.71,.14,1.57-.09,3.68-.33,6.27-.72,2.43-.29,5.13-.68,8.04-1.16,2.96-.49,5.86-1,8.62-1.52,2.78-.53,5.43-1.06,7.89-1.59,2.44-.53,4.45-1.03,5.98-1.51,1.33-.39,2.18-.4,2.68-.03,.2,.15,.44,.43,.44,.94v2.1c0,.58,.09,1.13,.26,1.65,.25,1.02,.25,1.58,0,1.91-.22,.3-.63,.5-1.25,.62-2.64,.49-5.07,.71-7.21,.66-2.19-.05-3.75-.22-4.77-.53-2.7-.74-4.94-.94-6.64-.57-1.69,.37-3.19,1.2-4.47,2.48-2.08,2.08-2.94,3.9-2.55,5.4,.14,.55,.4,.93,.79,1.16,.64,.37,1.65,.37,3.01,0,4.09-.88,8.41-1.54,12.84-1.97,4.44-.43,8.36-.66,11.65-.66,2.42,0,3.71,.64,3.83,1.9,.09,.66,.17,1.25,.22,1.74,.05,.5,.08,.96,.08,1.36,0,.57-.25,1.02-.71,1.25-.21,.11-.67,.28-2.16,.55-3.69,.49-6.59,.76-8.63,.81-2.1,.05-3.48-.03-4.21-.24-3.52-.64-6.32-.63-8.25,.06-1.94,.69-3.72,1.98-5.3,3.84-.96,1.12-1.42,2.08-1.34,2.77,.05,.38,.27,.71,.67,1,1.22,.87,3.66,.8,7.26-.22,1.48-.49,3.83-.83,7.14-1.03,3.25-.19,7.68-.29,13.16-.29,1.11,0,1.81,.24,2.15,.74,.26,.38,.27,.85,.05,1.4-.17,.69-.31,1.38-.41,1.99-.1,.64-.2,1.2-.29,1.69-.2,1.42-2.38,1.42-3.1,1.42-6.07,0-11.16,.07-15.14,.22-3.96,.14-6.45,.31-7.39,.5-2.66,.4-5.16,.5-7.46,.3-2.29-.19-4.45-.59-6.41-1.18-1.58-.46-3.27-.63-5.04-.49-1.73,.14-3.54,.95-5.38,2.43-2.56,1.99-4.47,4-5.69,5.96-.7,1.04-.94,1.93-.74,2.65,.21,.75,.68,1.34,1.45,1.81,.78,.48,1.83,.7,3.13,.65,1.33-.04,2.8-.44,4.37-1.19,.52-.21,1.11-.4,1.82-.61,.68-.19,1.53-.39,2.58-.59,1.02-.19,2.27-.38,3.8-.58l5.58-.73c1.38-.1,3.24-.24,5.61-.44,2.42-.2,4.94-.37,7.48-.51,2.61-.15,5.17-.29,7.69-.44,2.51-.14,4.67-.22,6.41-.22,5.18-.19,10.39-.29,15.45-.29Zm40.84-38.03c-1.67,0-3.51-.6-5.49-1.8-1.29-.74-2.79-1.25-4.47-1.53-1.7-.28-4.2-.38-7.44-.28-1.09,.09-1.96,.23-2.55,.41-.55,.17-.94,.37-1.17,.6-.52,.52-1.06,.92-1.58,1.18-.51,.26-1.18,.49-1.99,.69-2.05,.61-3.84,.47-5.31-.42-1.49-.9-2.4-2.71-2.7-5.37-.39-2.79-.85-6.13-1.38-10l-1.38-10.01c-.5-2.77-.64-4.74-.43-6.02,.21-1.31,.89-2.55,2.03-3.68,1.15-1.15,2.6-1.78,4.31-1.89,1.67-.1,3.25,.21,4.68,.92,1.29,.55,2.25,.91,2.8,1.05,.5,.13,1.16,.1,1.94-.08,2.18-.3,4.01-.52,5.5-.66,1.52-.15,2.82-.17,3.87-.07,1.04,.1,1.97,.28,2.78,.53,.8,.25,1.66,.63,2.56,1.13,1.1,.59,2.42,.45,4.01-.43,.54-.33,1.26-.51,2.17-.57,.84-.05,1.72-.02,2.62,.07,.91,.1,1.81,.33,2.67,.69,.85,.35,1.59,.73,2.19,1.13,1.77,1.45,2.78,2.92,3.05,4.39,.25,1.43,.03,3.26-.67,5.46-.86,2.87-1.51,5.42-1.94,7.56-.43,2.16-.79,4.61-1.08,7.28-.5,4.5-1.98,7.48-4.38,8.87-.99,.57-2.06,.85-3.21,.85Zm-15.11-4.65c2.22,0,4,.11,5.32,.33,1.79,.3,3.41,.85,4.81,1.65,3.06,1.86,5.57,2.16,7.7,.94,2.12-1.22,3.42-3.94,3.89-8.11,.29-2.7,.66-5.18,1.09-7.37,.44-2.18,1.1-4.76,1.97-7.66h0c.65-2.05,.86-3.72,.64-4.99-.22-1.23-1.12-2.49-2.66-3.76-.51-.33-1.19-.68-1.98-1.01-.78-.32-1.59-.53-2.4-.62-.84-.09-1.67-.12-2.45-.07-.74,.04-1.32,.19-1.73,.44-1.91,1.06-3.58,1.21-4.99,.45-.84-.47-1.64-.82-2.38-1.05-.75-.23-1.61-.39-2.58-.49-.99-.09-2.23-.07-3.68,.07-1.48,.14-3.3,.36-5.42,.65-.9,.2-1.71,.23-2.36,.06-.61-.15-1.59-.52-2.98-1.11-1.3-.65-2.7-.92-4.2-.83-1.48,.09-2.68,.61-3.67,1.59-.98,.98-1.57,2.04-1.75,3.13-.19,1.15-.04,3.07,.43,5.71l1.38,10.03c.53,3.87,.99,7.2,1.38,10.01,.27,2.35,1.02,3.91,2.23,4.64,1.24,.75,2.72,.85,4.53,.31,.75-.19,1.35-.4,1.8-.62,.43-.21,.88-.55,1.32-.99,.35-.35,.86-.63,1.58-.85,.67-.21,1.58-.35,2.79-.46,.83-.02,1.61-.04,2.34-.04Zm-59.07-1.69c-.96,0-1.61-.21-1.98-.64-.41-.47-.67-1.27-.77-2.46,0-.97,.21-1.63,.65-2.07,.43-.43,1.22-.69,2.41-.8,.91,0,2.07-.02,3.51-.07l4.5-.15c1.55-.05,3.05-.09,4.5-.14,3.51-.11,5.2-.17,5.88,.51,.39,.39,.58,1.03,.58,1.95,0,1.14-.92,1.89-2.73,2.23-2.55,.3-5.19,.59-7.94,.88-2.79,.29-5.45,.54-7.92,.73-.24,.02-.47,.03-.68,.03Zm16.31-5.4c-.87,0-2.02,.02-3.46,.07-1.45,.05-2.95,.1-4.5,.14l-4.49,.15c-1.46,.05-2.62,.07-3.5,.07-1.19,.11-1.61,.37-1.75,.51-.24,.24-.36,.68-.36,1.31,.1,1.14,.34,1.64,.53,1.84,.1,.12,.49,.38,1.83,.27,2.46-.19,5.11-.43,7.89-.72,2.75-.29,5.39-.58,7.9-.87,1.23-.23,1.88-.65,1.88-1.24,0-.83-.18-1.13-.29-1.24-.07-.07-.39-.29-1.68-.29Zm44.24,1.01c-1.77,0-3.44-.05-4.96-.15-2.86-.1-4.38-1.78-4.38-4.85,0-1.32-.02-2.71-.07-4.26-.05-1.48-.17-2.75-.36-3.77-.22-1.43,0-2.48,.65-3.13,.62-.62,1.78-1.02,3.56-1.23,1.84-.19,3.85-.32,5.99-.37,2.13-.05,4.06,.03,5.73,.22,1.97,.21,3.29,.69,4.01,1.46,.71,.77,1.08,1.91,1.08,3.39,0,1.05-.05,2.25-.15,3.66-.1,1.36-.2,2.57-.29,3.64-.1,1.66-.65,2.95-1.62,3.81-.97,.86-2.44,1.33-4.51,1.43-1.33,.1-2.91,.15-4.67,.15Zm1.66-16.77c-.4,0-.8,0-1.21,.01-2.11,.05-4.1,.17-5.9,.36-1.89,.22-2.66,.64-2.96,.94-.41,.41-.54,1.17-.37,2.25,.19,1.07,.32,2.36,.37,3.9,.05,1.56,.07,2.97,.07,4.29,0,2.54,1.09,3.77,3.43,3.85,1.52,.1,3.17,.14,4.91,.14s3.29-.05,4.6-.14c1.82-.09,3.13-.49,3.91-1.18,.76-.68,1.19-1.73,1.28-3.14,.1-1.07,.19-2.28,.29-3.63,.1-1.39,.14-2.57,.14-3.59,0-1.22-.27-2.13-.81-2.71-.54-.58-1.68-.97-3.38-1.15-1.3-.15-2.77-.23-4.38-.23Zm-62.45,11c-.57,0-1.06-.16-1.44-.49-.52-.45-.78-1.2-.78-2.21,0-2.71,1.59-3.11,2.53-3.11,.77,0,1.85-.02,3.25-.07,1.41-.05,2.9-.07,4.44-.07s3.08-.02,4.48-.07c1.46-.05,2.72-.07,3.79-.07,1.22,0,2.03,.25,2.48,.75,.43,.49,.63,1.21,.63,2.22,0,1.12-.21,1.87-.65,2.31-.46,.46-1.3,.62-2.64,.51-.82,0-1.98,.03-3.42,.08-2.74,.09-6.06,.05-8.92,.14-1.41,.05-2.5,.07-3.28,.07-.16,.02-.31,.03-.46,.03Zm16.27-5.11c-1.06,0-2.31,.03-3.75,.07-1.41,.05-2.89,.07-4.51,.07-1.53,0-3.01,.02-4.41,.07-1.41,.05-2.5,.07-3.28,.07-.71,0-1.53,.24-1.53,2.11,0,.72,.15,1.21,.44,1.46,.25,.22,.64,.29,1.17,.22,.83,0,1.92-.03,3.31-.08,2.86-.1,6.18-.05,8.92-.14,1.46-.05,2.62-.07,3.5-.07,1.4,.12,1.79-.11,1.89-.22,.13-.13,.36-.52,.36-1.6,0-.73-.13-1.27-.38-1.56-.13-.15-.54-.41-1.73-.41Zm-15.93-5.04c-.71,0-1.23-.19-1.56-.57-.37-.43-.55-1.18-.55-2.28,0-2.91,1.76-3.61,3.23-3.69h13.66c1.84,.11,2.94,.41,3.47,.94,.54,.54,.8,1.53,.8,3.04,0,1.63-.9,2.53-2.53,2.53h-15.95c-.2,.02-.38,.03-.56,.03Zm14.74-5.55h-13.6c-1.55,.08-2.26,.91-2.26,2.69,0,1.1,.2,1.5,.31,1.63,.17,.2,.64,.27,1.31,.19h16.01c1.07,0,1.53-.46,1.53-1.53,0-1.59-.32-2.14-.51-2.33-.19-.19-.81-.53-2.79-.65Z"/></g><g><path class="cls-1" d="M577.48,115.39c-.39,3.29-.8,5.68-1.23,7.18-.44,1.5-.99,2.78-1.67,3.84-.58,.97-1.4,1.65-2.47,2.03-1.07,.39-2.1,.51-3.12,.36-1.02-.15-1.89-.56-2.61-1.23-.72-.68-1.09-1.6-1.09-2.76,0-2.71-.1-5.63-.29-8.77-.19-3.14-.39-5.63-.58-7.47-.19-1.93-.7-3.24-1.52-3.92-.82-.68-2.3-1.11-4.42-1.31-5.61-.48-11.82-.8-18.64-.94-6.82-.15-13.73-.17-20.74-.07-7.01,.1-13.85,.32-20.52,.65-6.67,.34-12.67,.8-17.99,1.38-1.64,.19-2.97,.41-3.99,.65-1.01,.24-1.84,.65-2.47,1.23-.63,.58-1.11,1.33-1.45,2.25-.34,.92-.7,2.1-1.09,3.55-.39,1.36-.68,3.14-.87,5.37-.19,2.23-.19,5.13,0,8.7,0,.97-.36,1.86-1.09,2.68-.72,.82-1.62,1.4-2.68,1.74-1.07,.34-2.1,.44-3.12,.29-1.01-.15-1.81-.65-2.39-1.52-.58-.97-1.07-1.96-1.45-2.97-.39-1.02-.7-2.39-.94-4.13-.24-1.74-.39-3.99-.43-6.74-.05-2.76-.03-6.4,.07-10.95,0-1.26,.14-2.59,.43-3.99,.29-1.4,.68-2.68,1.16-3.84,.48-1.16,1.06-2.2,1.74-3.12,.67-.92,1.45-1.57,2.32-1.96,1.35-.68,2.51-.89,3.48-.65,.96,.24,2.17,1.14,3.63,2.68,.48,.48,1.71,.9,3.7,1.23,1.98,.34,5.53,.41,10.66,.22,3.96-.19,7.59-.34,10.88-.44,3.29-.1,6.48-.19,9.57-.29,2.8-.29,4.06-2.08,3.77-5.37-.19-2.51,.1-4.28,.87-5.29,.77-1.02,1.98-1.47,3.63-1.38,3.77,.19,6.43,.51,7.98,.94,1.55,.44,2.76,1.09,3.63,1.96,1.06,.87,1.6,2.52,1.6,4.93,0,1.26,.24,2.18,.72,2.76,.48,.58,1.55,.87,3.19,.87,3,0,5.75,.02,8.27,.07,2.51,.05,4.86,.15,7.04,.29,2.17,.15,4.3,.31,6.38,.51,2.08,.19,4.28,.44,6.6,.73,1.26,.19,2.25,.12,2.97-.22,.73-.34,1.47-.89,2.25-1.67,1.16-1.35,2.78-1.76,4.86-1.23,2.08,.53,3.89,2.06,5.44,4.57,1.26,2.13,2.03,4.59,2.32,7.4,.29,2.81,.19,6.53-.29,11.17Zm-58.16,16.1c-.68,0-1.14,.19-1.38,.58-.24,.39-.22,.77,.07,1.16,.48,.58,.55,1.26,.22,2.03-.34,.77-1.28,1.69-2.83,2.76-.77,.48-1.18,.99-1.23,1.52-.05,.53,.27,.8,.94,.8,3.96-.19,8.2-.17,12.69,.07,4.5,.24,9.98,.75,16.46,1.52,1.16,.19,2.37,.27,3.63,.22,1.26-.05,2.27-.27,3.05-.65,1.45-.68,2.8-.89,4.06-.65,1.25,.24,2.56,.85,3.92,1.81,1.35,1.06,2.22,2.06,2.61,2.97,.38,.92,.38,2.59,0,5-.2,1.26-.39,2.61-.58,4.06-.2,1.45-.39,2.85-.58,4.21-.2,1.35-.36,2.59-.51,3.7-.15,1.11-.27,1.96-.36,2.54-.49,3.39-1.84,5.51-4.06,6.38-2.23,.87-4.88,.58-7.98-.87-.87-.39-1.91-.73-3.12-1.02-1.21-.29-2.73-.53-4.57-.72-1.84-.19-4.11-.34-6.82-.44-2.71-.09-6.04-.14-10.01-.14h-13.78c-2.23,0-4.55,.02-6.96,.07-2.42,.05-5.17,.07-8.27,.07-.77,0-1.43,.1-1.96,.29-.53,.2-1.28,.68-2.25,1.45-1.06,.78-2.27,1.33-3.63,1.67-1.35,.34-2.71,.46-4.06,.36-1.45-.1-2.59-.68-3.41-1.74-.82-1.06-1.23-2.46-1.23-4.21,0-.77-.05-1.67-.14-2.68-.1-1.02-.2-2.03-.29-3.05-.1-1.02-.24-1.96-.43-2.83-.2-.87-.34-1.6-.44-2.18-.77-2.8-1.04-5.41-.8-7.83,.24-2.42,1.04-4.25,2.39-5.51,1.93-1.84,4.35-2.18,7.25-1.02,1.16,.49,2.1,.8,2.83,.94,.73,.15,1.57,.12,2.54-.07,.58-.1,1.26-.17,2.03-.22,.77-.05,1.59-.1,2.47-.15,.87-.05,1.71-.1,2.54-.15,.82-.05,1.47-.07,1.96-.07,1.54,0,2.56-.39,3.05-1.16,1.64-2.42,2.66-4.69,3.05-6.82,.19-.87-.29-1.31-1.45-1.31-1.45,0-3.24,.15-5.37,.44-2.13,.29-3.87,.73-5.22,1.31-.48,.2-.94,.29-1.38,.29h-1.38c-2.9-.1-4.5-1.79-4.79-5.08-.1-.68-.24-1.57-.43-2.68-.2-1.11-.39-2.25-.58-3.41-.2-1.16-.41-2.25-.65-3.26-.24-1.02-.41-1.81-.51-2.39-.48-1.93-.53-3.6-.14-5,.38-1.4,1.26-2.83,2.61-4.28,.87-.97,2.01-1.55,3.41-1.74,1.4-.19,2.63,.05,3.7,.73,.77,.48,1.45,.85,2.03,1.09,.58,.24,1.4,.36,2.47,.36,3.29-.1,6.4-.17,9.35-.22,2.95-.05,5.83-.05,8.63,0,2.8,.05,5.66,.12,8.56,.22,2.9,.1,5.95,.29,9.14,.58,1.74,.2,3.02,.2,3.84,0,.82-.19,1.67-.63,2.54-1.31,3-2.13,5.99-2.13,8.99,0,1.64,1.26,2.61,2.44,2.9,3.55,.29,1.11,.34,2.78,.14,5-.29,2.81-.49,4.98-.58,6.53-.1,1.55-.1,2.85,0,3.92,.09,1.26-.2,2.37-.87,3.34-.68,.97-1.55,1.77-2.61,2.39-1.07,.63-2.25,1.02-3.55,1.16-1.31,.15-2.54-.02-3.7-.51-1.55-.68-3.84-1.14-6.89-1.38-3.05-.24-7.81-.36-14.29-.36Zm26.4,24.8c.29-2.61,.29-4.35,0-5.22-.29-.87-.97-1.45-2.03-1.74-1.45-.29-4.16-.58-8.12-.87-3.97-.29-8.41-.51-13.34-.65s-9.96-.15-15.08,0c-5.13,.15-9.57,.41-13.34,.8-1.16,.19-2.1,.56-2.83,1.09-.73,.53-1.09,1.48-1.09,2.83v2.25c0,.63,.05,1.48,.14,2.54,.29,1.94,1.79,2.9,4.5,2.9,7.54-.09,15.28-.09,23.21,0,7.93,.1,16,.34,24.22,.73,1.25,.1,2.15-.19,2.68-.87,.53-.68,.89-1.93,1.09-3.77Zm-8.41-35.97c0-1.93-.2-3.19-.58-3.77-.39-.58-1.26-.92-2.61-1.02-4.64-.19-9.89-.27-15.74-.22-5.85,.05-11.44,.17-16.75,.36-1.94,.1-3.19,.44-3.77,1.02-.58,.58-.87,1.69-.87,3.34,0,1.84,.27,2.97,.8,3.41,.53,.44,1.81,.65,3.84,.65,3,0,6.11,.02,9.36,.07,3.24,.05,6.36,.07,9.35,.07s5.68-.02,8.05-.07c2.37-.05,4.18-.07,5.44-.07,1.25-.1,2.15-.39,2.68-.87,.53-.48,.8-1.45,.8-2.9Z"/><path d="M482.93,172.78c-.31,0-.61-.01-.92-.03-1.59-.11-2.86-.76-3.77-1.93-.89-1.15-1.34-2.66-1.34-4.51,0-.74-.05-1.62-.14-2.64l-.29-3.05c-.09-.98-.24-1.92-.43-2.77-.2-.88-.34-1.62-.44-2.2-.78-2.8-1.05-5.49-.8-7.96,.25-2.53,1.11-4.49,2.55-5.83,2.08-1.97,4.69-2.35,7.78-1.11,1.12,.47,2.04,.78,2.74,.92,.66,.13,1.45,.11,2.34-.07,.61-.1,1.31-.18,2.1-.23,.77-.05,1.6-.1,2.47-.15,.87-.05,1.71-.09,2.54-.14,.83-.05,1.5-.07,1.99-.07,1.35,0,2.24-.31,2.62-.93,1.61-2.36,2.6-4.59,2.98-6.64,.04-.17,.06-.38-.03-.49-.06-.07-.26-.23-.93-.23-1.42,0-3.2,.14-5.3,.43-2.07,.28-3.79,.71-5.09,1.27-.55,.22-1.07,.33-1.57,.33h-1.38c-3.15-.1-4.97-2.02-5.28-5.53-.09-.64-.24-1.54-.43-2.64-.2-1.11-.39-2.25-.58-3.41-.19-1.14-.41-2.23-.65-3.23-.25-1.04-.42-1.84-.51-2.43-.5-1.97-.54-3.74-.13-5.22,.4-1.47,1.32-2.98,2.73-4.49,.94-1.04,2.19-1.68,3.71-1.89,1.51-.21,2.87,.06,4.03,.8,.74,.47,1.4,.82,1.95,1.05,.52,.21,1.28,.32,2.27,.32,3.27-.09,6.39-.17,9.35-.22,2.94-.05,5.85-.05,8.65,0,2.81,.05,5.66,.12,8.57,.22,2.92,.1,6,.29,9.17,.58,1.68,.19,2.92,.19,3.68,.01,.75-.18,1.54-.58,2.35-1.21,3.19-2.27,6.41-2.26,9.59-.01,1.77,1.35,2.77,2.6,3.1,3.84,.31,1.17,.36,2.87,.16,5.17-.3,2.88-.49,5.01-.58,6.51-.1,1.52-.1,2.81,0,3.84,.1,1.38-.22,2.61-.96,3.67-.72,1.02-1.65,1.88-2.77,2.54-1.12,.66-2.38,1.07-3.75,1.23-1.39,.16-2.71-.03-3.95-.54-1.5-.66-3.76-1.11-6.74-1.34-3.03-.24-7.83-.36-14.25-.36-.49,0-.81,.12-.95,.34-.11,.18-.14,.34,.05,.59,.59,.71,.69,1.59,.28,2.53-.38,.87-1.37,1.84-3,2.97-.45,.28-.98,.7-1.02,1.16,0,.09,0,.15,.02,.17,0,0,.08,.09,.43,.09,3.93-.19,8.22-.17,12.72,.07,4.48,.24,10.03,.75,16.49,1.53,1.14,.19,2.33,.26,3.55,.21,1.18-.04,2.13-.25,2.84-.6,1.55-.72,3.02-.96,4.38-.7,1.32,.26,2.7,.89,4.11,1.9,1.45,1.14,2.36,2.18,2.78,3.19,.43,1.02,.44,2.75,.03,5.28-.19,1.25-.39,2.6-.58,4.05-.2,1.45-.39,2.86-.58,4.21-.2,1.35-.36,2.58-.51,3.69-.15,1.12-.27,1.97-.36,2.55-.51,3.55-1.98,5.83-4.37,6.77-2.35,.92-5.16,.62-8.37-.88-.83-.37-1.85-.7-3.02-.98-1.17-.28-2.69-.52-4.5-.71-1.81-.19-4.09-.34-6.78-.43-2.74-.1-6.1-.14-9.99-.14h-13.78c-2.2,0-4.53,.02-6.95,.07-2.36,.05-5.07,.07-8.28,.07-.71,0-1.31,.09-1.79,.26-.33,.12-.96,.46-2.11,1.37-1.12,.82-2.4,1.41-3.82,1.76-1.09,.27-2.2,.41-3.3,.41Zm-1.14-31.75c-1.42,0-2.66,.52-3.76,1.56-1.26,1.17-2.01,2.92-2.24,5.2-.23,2.35,.03,4.92,.78,7.65,.11,.62,.25,1.34,.44,2.2,.2,.89,.35,1.86,.44,2.89l.29,3.05c.1,1.06,.15,1.95,.15,2.73,0,1.62,.38,2.93,1.13,3.9,.74,.95,1.73,1.46,3.05,1.55,1.3,.09,2.61-.03,3.91-.35,1.29-.32,2.45-.86,3.45-1.59,1-.8,1.78-1.3,2.37-1.52,.59-.21,1.3-.32,2.13-.32,3.2,0,5.9-.02,8.26-.07,2.42-.05,4.77-.07,6.97-.07h13.78c3.9,0,7.28,.05,10.03,.14,2.72,.1,5.02,.25,6.85,.44,1.86,.2,3.42,.44,4.63,.74,1.23,.29,2.3,.65,3.2,1.04,2.96,1.39,5.51,1.67,7.59,.86,2.06-.81,3.29-2.76,3.75-5.99,.1-.59,.22-1.43,.36-2.53,.15-1.11,.31-2.35,.51-3.71,.19-1.35,.38-2.75,.58-4.2,.19-1.45,.39-2.81,.58-4.07,.46-2.88,.27-4.16,.03-4.73-.35-.83-1.18-1.77-2.46-2.77-1.27-.91-2.52-1.49-3.7-1.71-1.14-.22-2.41-.01-3.75,.62-.82,.41-1.92,.65-3.24,.7-1.29,.05-2.54-.03-3.73-.22-6.42-.76-11.95-1.28-16.41-1.52-4.47-.24-8.72-.26-12.64-.07h0c-.55,0-.94-.14-1.19-.41-.15-.16-.32-.46-.27-.93,.06-.69,.56-1.33,1.46-1.9,1.8-1.24,2.43-2.06,2.64-2.53,.26-.6,.21-1.08-.14-1.51-.43-.57-.46-1.18-.11-1.75,.34-.54,.94-.81,1.8-.81,6.45,0,11.27,.12,14.33,.36,3.08,.25,5.46,.72,7.05,1.42,1.07,.44,2.23,.61,3.44,.47,1.23-.14,2.36-.5,3.35-1.09,1-.59,1.82-1.35,2.46-2.25,.61-.88,.87-1.86,.78-3.01-.1-1.07-.1-2.42,0-3.98,.09-1.52,.28-3.66,.58-6.55,.19-2.15,.14-3.78-.13-4.83-.26-1-1.18-2.1-2.72-3.28-2.82-2-5.57-2-8.4,.01-.9,.7-1.82,1.17-2.71,1.38-.89,.21-2.2,.21-4.01,.01-3.14-.29-6.2-.48-9.1-.58-2.9-.09-5.75-.17-8.55-.22-2.79-.05-5.68-.05-8.61,0-2.95,.05-6.06,.12-9.35,.22h0c-1.16,0-2.02-.13-2.67-.4-.61-.25-1.31-.63-2.1-1.12-.98-.62-2.07-.83-3.36-.65-1.29,.18-2.31,.7-3.11,1.58-1.3,1.39-2.14,2.76-2.5,4.08-.36,1.31-.31,2.91,.15,4.75,.1,.6,.27,1.39,.51,2.4,.24,1.02,.46,2.13,.66,3.3,.19,1.16,.38,2.3,.58,3.41,.19,1.12,.34,2.02,.44,2.7,.27,3.05,1.68,4.56,4.31,4.65h1.36c.37,0,.77-.09,1.19-.25,1.38-.59,3.18-1.04,5.34-1.34,2.14-.29,3.97-.44,5.43-.44,.82,0,1.38,.2,1.71,.6,.27,.34,.35,.78,.23,1.31-.4,2.17-1.45,4.53-3.12,6.99-.57,.91-1.74,1.38-3.46,1.38-.48,0-1.12,.02-1.93,.07-.82,.05-1.67,.1-2.54,.14-.87,.05-1.69,.1-2.46,.15-.75,.05-1.42,.12-1.98,.21-1.01,.2-1.93,.23-2.72,.07-.76-.15-1.75-.48-2.92-.97-1.06-.42-2.05-.64-2.96-.64Zm60.61,20.42c-.16,0-.32,0-.49-.02-8.2-.38-16.34-.63-24.19-.72-7.89-.09-15.69-.09-23.19,0-2.99,0-4.67-1.12-5-3.33-.1-1.1-.15-1.97-.15-2.61v-2.25c0-1.52,.43-2.6,1.29-3.23,.78-.57,1.81-.97,3.04-1.18,3.82-.39,8.32-.66,13.41-.8,5.11-.14,10.19-.14,15.11,0,4.94,.15,9.43,.37,13.37,.65,3.97,.29,6.72,.59,8.18,.88,1.26,.34,2.06,1.04,2.41,2.07,.32,.95,.32,2.73,.02,5.43-.21,1.95-.6,3.27-1.19,4.03-.56,.72-1.44,1.08-2.62,1.08Zm-36.42-1.81c3.88,0,7.81,.02,11.75,.07,7.86,.1,16.02,.34,24.24,.73,1.1,.09,1.84-.14,2.27-.68,.32-.41,.76-1.36,.98-3.51h0c.35-3.15,.21-4.46,.02-5.01-.24-.71-.79-1.17-1.69-1.42-1.39-.28-4.1-.57-8.03-.85-3.92-.29-8.4-.51-13.32-.65-4.9-.14-9.96-.14-15.06,0-5.07,.14-9.54,.41-13.31,.79-1.05,.18-1.93,.51-2.58,.99-.59,.43-.88,1.25-.88,2.42v2.25c0,.62,.05,1.45,.14,2.49,.25,1.64,1.55,2.45,4,2.45,3.75-.05,7.58-.07,11.46-.07Zm-41.22-28.23c-.33,0-.66-.02-.99-.07-1.16-.17-2.08-.75-2.74-1.74-.61-1.01-1.11-2.04-1.5-3.07-.4-1.05-.73-2.48-.97-4.24-.24-1.76-.39-4.05-.44-6.8-.05-2.74-.02-6.43,.07-10.97,0-1.28,.15-2.65,.44-4.08,.3-1.43,.7-2.76,1.19-3.93,.49-1.19,1.1-2.27,1.8-3.22,.72-.98,1.57-1.7,2.52-2.12,1.44-.72,2.73-.95,3.81-.68,1.07,.27,2.34,1.19,3.87,2.83,.22,.22,.97,.66,3.42,1.08,1.94,.33,5.49,.41,10.56,.21,3.96-.19,7.62-.34,10.88-.44,3.29-.09,6.48-.19,9.57-.29,2.5-.26,3.56-1.79,3.29-4.82-.21-2.67,.11-4.51,.97-5.64,.88-1.15,2.25-1.68,4.05-1.57,3.85,.2,6.49,.51,8.08,.96,1.62,.46,2.92,1.16,3.84,2.09,1.14,.93,1.74,2.72,1.74,5.28,0,1.13,.2,1.95,.61,2.44,.26,.32,.96,.69,2.81,.69,2.93,0,5.72,.02,8.28,.07,2.55,.05,4.93,.15,7.06,.29,2.13,.14,4.28,.31,6.39,.51,2.13,.2,4.35,.45,6.61,.73,1.16,.18,2.07,.12,2.7-.17,.67-.31,1.38-.84,2.11-1.57,1.26-1.47,3.07-1.94,5.34-1.36,2.2,.56,4.13,2.17,5.74,4.79,1.29,2.19,2.1,4.75,2.39,7.61,.29,2.83,.19,6.62-.29,11.27h0c-.39,3.31-.81,5.75-1.25,7.27-.44,1.53-1.03,2.87-1.73,3.97-.63,1.05-1.55,1.81-2.72,2.23-1.14,.41-2.27,.54-3.36,.39-1.11-.16-2.08-.62-2.88-1.36-.83-.77-1.25-1.82-1.25-3.12,0-2.68-.1-5.63-.29-8.75-.2-3.19-.39-5.62-.58-7.45-.18-1.79-.63-3-1.34-3.58-.74-.61-2.14-1.01-4.15-1.19-5.57-.48-11.83-.8-18.6-.94-6.73-.14-13.7-.17-20.72-.07-6.96,.1-13.86,.32-20.5,.65-6.66,.34-12.7,.8-17.96,1.38-1.61,.19-2.93,.41-3.93,.64-.93,.22-1.68,.6-2.24,1.11-.57,.52-1.01,1.21-1.32,2.05-.33,.9-.69,2.08-1.07,3.51-.38,1.33-.67,3.1-.86,5.28-.19,2.19-.19,5.1,0,8.63,0,1.12-.41,2.13-1.21,3.04-.78,.89-1.76,1.52-2.91,1.89-.79,.25-1.58,.38-2.35,.38Zm2.27-40.04c-.71,0-1.53,.23-2.46,.69-.81,.36-1.52,.97-2.14,1.81-.65,.89-1.22,1.9-1.68,3.02-.47,1.12-.85,2.38-1.13,3.75-.28,1.36-.42,2.67-.42,3.89-.1,4.54-.12,8.21-.07,10.94,.05,2.72,.19,4.97,.43,6.68,.23,1.69,.54,3.04,.92,4.02,.37,.98,.85,1.95,1.41,2.89,.49,.73,1.16,1.16,2.03,1.29,.94,.14,1.91,.04,2.9-.27,.97-.31,1.8-.85,2.46-1.59,.65-.73,.96-1.5,.96-2.35-.19-3.56-.19-6.51,0-8.75,.19-2.24,.49-4.08,.89-5.46,.39-1.45,.76-2.66,1.1-3.59,.36-.99,.9-1.81,1.58-2.44,.69-.63,1.59-1.09,2.69-1.35,1.03-.24,2.39-.47,4.05-.66,5.28-.58,11.34-1.04,18.02-1.38,6.66-.34,13.57-.56,20.54-.65,7.03-.09,14.01-.07,20.76,.07,6.79,.15,13.08,.46,18.67,.95,2.25,.21,3.79,.67,4.7,1.42,.94,.77,1.49,2.16,1.7,4.25,.19,1.83,.38,4.29,.58,7.49,.19,3.14,.29,6.1,.29,8.81,0,1.03,.3,1.81,.93,2.39,.65,.61,1.42,.97,2.34,1.1,.93,.13,1.9,.02,2.88-.34,.96-.35,1.68-.94,2.21-1.82,.66-1.03,1.2-2.28,1.62-3.73,.42-1.46,.83-3.85,1.22-7.09,.48-4.58,.57-8.31,.29-11.06-.28-2.72-1.04-5.14-2.25-7.2-1.47-2.38-3.19-3.84-5.13-4.34-1.9-.48-3.32-.13-4.35,1.07-.85,.85-1.63,1.43-2.42,1.8-.81,.38-1.91,.47-3.26,.26-2.24-.28-4.45-.52-6.57-.72-2.11-.2-4.25-.37-6.37-.51-2.12-.14-4.48-.24-7.01-.29-2.55-.05-5.33-.07-8.26-.07-1.82,0-2.99-.34-3.58-1.05-.57-.68-.84-1.68-.84-3.08,0-2.25-.48-3.78-1.41-4.54-.84-.84-1.99-1.45-3.44-1.86-1.5-.42-4.14-.73-7.87-.92-1.49-.09-2.53,.3-3.2,1.18-.69,.91-.95,2.58-.77,4.95,.4,4.48-2.08,5.68-4.22,5.9-3.13,.1-6.32,.2-9.61,.29-3.25,.1-6.91,.24-10.87,.43-5.14,.2-8.76,.12-10.77-.22-2.14-.36-3.4-.8-3.97-1.37-1.39-1.48-2.53-2.33-3.39-2.55-.21-.05-.44-.08-.68-.08Zm53.3,33.38c-3.05,0-6.2-.02-9.36-.07-3.31-.05-6.46-.07-9.35-.07-2.2,0-3.52-.24-4.16-.77-.67-.55-.98-1.75-.98-3.8,0-1.8,.33-3,1.02-3.69,.68-.68,2.02-1.06,4.1-1.16,5.28-.19,10.92-.31,16.77-.36,5.83-.05,11.13,.03,15.76,.22,1.55,.11,2.52,.52,3.01,1.24,.45,.67,.66,2,.66,4.05,0,1.61-.31,2.68-.96,3.27-.62,.57-1.6,.89-2.98,1-1.29,0-3.1,.03-5.47,.07-2.35,.05-4.98,.07-8.06,.07Zm1.44-8.93c-1.11,0-2.24,0-3.39,.01-5.84,.05-11.47,.17-16.74,.36-2.23,.11-3.1,.54-3.44,.87-.33,.33-.72,1.12-.72,2.98,0,2.19,.38,2.83,.61,3.02,.25,.2,1.03,.54,3.53,.54,2.89,0,6.04,.02,9.36,.07,3.16,.05,6.3,.07,9.35,.07s5.7-.02,8.04-.07c2.37-.05,4.19-.07,5.45-.07,1.1-.08,1.9-.33,2.35-.74,.29-.26,.63-.92,.63-2.53,0-2.39-.31-3.22-.5-3.5-.29-.43-1.06-.71-2.23-.79-3.69-.15-7.82-.23-12.31-.23Z"/></g><path class="cls-1" d="M88.94,153.43c2.63-.25,5.08-.93,7.35-2.19,.42-.24,.85-.66,1.04-1.1,4.7-10.55,15.25-31.23,19.93-41.79,.1-.22,.16-.45,.09-.76-.19,.32-.39,.63-.57,.95-6.12,10.7-18.8,31.06-25.81,41.19-.75,1.08-1.49,2.16-2.26,3.21-.15,.21-.5,.47-.7,.43-1.89-.43-3.77-.92-5.75-1.42,.17-.3,.23-.45,.33-.57,5.42-6.55,9.97-13.68,14.03-21.13,8.67-15.87,21.12-42.72,26.37-60,.06-.21,.14-.41,.24-.7,1.92,1.28,3.79,2.52,5.65,3.76,.05-.04,.1-.09,.15-.13-2.24-3.84-4.49-7.69-6.85-11.74-.29,1.23-.53,2.24-.76,3.25-3.67,15.79-9.75,30.63-17.6,44.77-5.6,10.08-17.83,29.76-25.2,38.65-1.28,1.54-1.28,1.56-3.09,.75-6.96-3.13-11.09-5.84-16.66-10.97-2.15-1.98-5.04-4.43-4.92-4.48,6.42-2.45,22.85-16.66,26.4-22.39,3.44-5.54,5.59-11.61,7.18-17.91,.17-.66-.22-.76-.62-.94-4.66-2.04-9.51-3.46-14.44-4.65-6.32-1.51-12.74-2.45-19.15-3.45-6.45-1.01-12.48-3.14-17.43-7.61-4.58-4.14-6.98-9.26-6.44-15.53,.38-4.33,2.2-8.09,5.02-11.35,3.7-4.27,8.09-7.47,13.8-8.5,4.07-.74,8.1-.43,12.11,.45,6.78,1.5,13.02,4.35,19.01,7.79,1.01,.58,1.99,1.23,3.03,1.77,.3,.16,.78,.14,1.12,.03,1.1-.38,2.18-.83,3.25-1.3,.41-.18,.84-.44,1.13-.77,1.11-1.32,2.16-2.69,3.25-4.07,1.65,1.46,3.51,1.64,5.55,1.25,4.84-.92,9.41,.11,13.81,2.09,1.14,.51,2.23,1.12,3.34,1.68,.06-.05,.11-.09,.17-.14-.49-.55-.88-1.26-1.48-1.63-1.43-.89-2.89-1.82-4.46-2.38-4.05-1.45-8.29-1.87-12.58-1.86-.54,0-1.17,.14-1.43-.55-.28-.74-.36-1.48,.31-2.08,.92-.83,1.09-1.87,.54-2.88-.87-1.6-.83-3.17-.55-4.93,.42-2.65,.08-5.31-1.29-7.69-.54-.94-1.29-1.82-2.1-2.55-1.06-.96-1.88-1.86-1.38-3.44,.14-.44-.1-1.04-.27-1.52-.29-.81-.67-1.58-1.01-2.38,3.54-2.57,6.55-5.67,9.63-8.69,.23-.23,.61-.36,.95-.42,3.14-.54,5.84-1.83,7.64-4.59,.5-.76,.85-1.61,1.19-2.26,3.17,.67,6.31,1.34,9.57,2.04-.05,.96-.08,2.04-.18,3.11-.13,1.4,.02,2.86-.86,4.11-.08,.12-.11,.32-.09,.48,.23,1.28,.51,2.56,.72,3.85,.09,.56,.06,1.13,.06,1.7,0,.28-.06,.55-.07,.83-.04,1.75,.02,3.51-.13,5.25-.15,1.66,.23,3.1,1.32,4.33,.54,.61,.49,1.11,0,1.68-.24,.27-.49,.55-.66,.86-.11,.21-.14,.49-.13,.74,0,.57,.11,1.14,.05,1.7-.1,.96-.23,1.94-.46,2.87-.18,.74-.47,1.49-.86,2.14-.17,.27-.74,.45-1.11,.42-.88-.07-2.44,.75-2.7,1.61-.06,.21,.04,.62,.2,.72,1.32,.86,2.67,1.69,4.03,2.49,.13,.08,.38,0,.56-.04,.38-.09,.75-.22,1.13-.31,1.68-.38,3.04-1.19,3.89-2.74,.09-.17,.22-.32,.34-.47,1.11-1.41,1.63-1.44,2.79-.08,1.58,1.85,2.57,3.9,2.07,6.43-.26,1.3-.73,1.71-2.06,1.63-.6-.04-1.2-.17-1.94-.28,.15,.42,.27,.77,.41,1.11,1.3,3.26,2.6,6.52,3.92,9.76,1.21,2.97,2.83,5.68,5.23,7.86,1.07,.97,2.19,1.55,3.7,.78,.61-.31,1.4-.33,2.12-.37,1.25-.07,2.26,.4,3,1.47,2.16,3.09,3.83,6.4,4.52,10.14,.34,1.85,.21,2.43-.76,3.95,1.19,1.57,2.43,3.08,3.53,4.68,1.35,1.96,2.29,4.13,2.96,6.42,1.04,3.53,.13,6.72-1.91,9.56-1.76,2.46-3.85,4.69-5.71,7.08-1.81,2.32-3.64,4.65-5.24,7.12-.9,1.4-1.33,3.1-1.99,4.66-.16,.37-.31,.8-.59,1.07-1.59,1.52-3.21,3.01-4.83,4.51-.1,.09-.21,.16-.37,.28-.72-1.02-.71-2.12-.51-3.22,.36-2.02,1.33-3.77,2.49-5.43,2.32-3.34,5.24-6.14,8.08-9.01,1.57-1.58,3.11-3.19,4.62-4.83,2.93-3.19,4.03-6.85,3.09-11.18-.79-3.63-1.85-7.1-4.02-10.17-.42-.59-.76-.74-1.55-.51-1.23,.36-2.58,.33-3.86,.53-.42,.07-.93,.23-1.18,.53-2.25,2.7-3.77,5.84-5.16,9.03-3.68,8.44-6.4,17.22-8.79,26.09-1.88,6.96-9.39,24.09-11.18,31.07-.11,.43-.44,.91-.81,1.17-4.11,2.9-8.74,4.33-13.71,4.8-2.99,.28-5.96,.1-8.91-.34-.22-.03-.44-.07-.66-.12-.05,0-.08-.06-.19-.15Zm-.85-63.03c.07-.18,.12-.28,.15-.38,1.58-7.66,2.41-15.4,2.44-23.22,0-.55-.18-.84-.65-1.11-2.93-1.7-5.66-3.67-7.78-6.36-1.39-1.76-2.59-3.64-1.34-6.07-1.42-.89-2.8-1.77-4.19-2.63-4.41-2.73-8.9-5.3-13.93-6.75-5.25-1.51-10.43-1.54-15.32,1.17-5.27,2.93-9.02,7.3-11.33,12.85-1.41,3.39-1.28,6.8,.59,10.05,1.33,2.32,3.24,4.1,5.42,5.59,4.93,3.36,10.44,5.37,16.23,6.57,7.91,1.64,15.56,4.03,22.96,7.25,2.24,.97,4.45,2.02,6.76,3.06Zm41.17-8.48c-.06,0-.12-.02-.18-.02-.02,.1-.05,.2-.07,.31-1.22,6.96-3.3,13.68-5.8,20.27-4.84,12.76-16.68,35.09-23.27,47.02-.14,.25-.27,.51-.49,.94,2.76-.77,5.14-1.88,7.38-3.29,.5-.31,.97-.85,1.19-1.4,3.24-7.94,12.11-26.08,14.68-34.26,2.53-8.05,4.74-16.19,5.97-24.56,.24-1.66,.39-3.34,.59-5.01Zm-21.16,35.05c.08-.12,.16-.23,.22-.35,2.71-5.05,5.52-10.06,8.1-15.17,3.43-6.79,6.45-13.76,8.44-21.13,.44-1.64,.75-3.31,1.12-4.96-.08-.02-.16-.04-.25-.07-5.58,14.03-11.22,28.03-17.64,41.69Zm-11.31-49.29c.76-1.6,1.45-3.25,2.29-4.8,1.44-2.64,3.34-4.88,6.08-6.25,3.77-1.88,7.54-1.49,11.3,.09,.22,.09,.45,.19,.67,.29-1.62-1.9-3.45-3.48-5.78-4.34-2.31-.85-4.52-.58-6.51,.85-.9,.64-1.74,1.41-2.44,2.26-2.88,3.48-4.4,7.62-5.62,11.9Z"/><rect class="cls-1" x="159.97" y="1.17" width="167.99" height="2"/><rect class="cls-1" x="159.97" y="52.27" width="167.99" height="2"/></g></svg>