<?xml version="1.0" encoding="UTF-8"?><svg id="_圖層_2" xmlns="http://www.w3.org/2000/svg" viewBox="0 0 1440 8.9"><defs><style>.cls-1{fill:#603232;}</style></defs><g id="_圖層_1-2"><path class="cls-1" d="M1440,8.33h-259.49s-129.39-1.82-168.41-1.8c-37.55,.02-100.35,1.91-137.9,1.8-45.14-.14-155.93-.98-180.57,0-32.22,1.28-128.98,0-128.98,0,0,0-108.26-1.1-140.3-1.21-28.36-.1-76.6,1.71-111.25,1.21-25.89-.38-82.88,.62-103.59,.49-29.92-.2-69.21-1.66-98.89-1.33C64.78,8,0,8.33,0,8.33V1.32s10.44,.52,33.68-.29c52.96-1.83,133.88,.5,175.84,.93,50.13,.52,145.07-.91,193.21-1.11,30.63-.13,121.88,.46,121.88,.46,0,0,99.16,.25,173.02,.28,34.95,.02,50.68-.96,72.65-.28,20.41,.63,73.98,.05,94.4-.05,52.2-.27,143.87,0,196.06,.05,25.85,.02,83.27-.55,112.55,.65C1238.13,4.62,1308.5,.05,1352.7,0c29.76-.03,87.3,1.32,87.3,1.32v7.01Z"/></g></svg>